<?xml version="1.0" standalone="no"?>
<!DOCTYPE svg PUBLIC "-//W3C//DTD SVG 1.1//EN" "http://www.w3.org/Graphics/SVG/1.1/DTD/svg11.dtd" >
<svg xmlns="http://www.w3.org/2000/svg" xmlns:xlink="http://www.w3.org/1999/xlink" version="1.1">
<metadata></metadata>
<defs>
<font id="zeppelin_32regular" horiz-adv-x="1159" >
<font-face units-per-em="2048" ascent="1638" descent="-410" />
<missing-glyph horiz-adv-x="464" />
<glyph unicode="&#xfb01;" horiz-adv-x="1114" d="M55 866v176h115v39q0 106 40 185.5t110 124.5t153 66.5t180 21.5q169 0 301 -56l-65 -161q-83 47 -223 47q-128 0 -210.5 -56.5t-82.5 -171.5v-39h612v-1042h-203v866h-409v-866h-203v866h-115z" />
<glyph unicode="&#xfb02;" horiz-adv-x="1114" d="M55 866v176h115v37q0 88 25 157.5t66.5 114t98 73.5t116 41t124.5 12q129 0 227 -37l158 57v-1497h-203v1280q-71 29 -161 29q-107 0 -177.5 -57t-70.5 -173v-37h250v-176h-250v-866h-203v866h-115z" />
<glyph horiz-adv-x="0" />
<glyph horiz-adv-x="682" />
<glyph unicode=" "  horiz-adv-x="464" />
<glyph unicode="&#x09;" horiz-adv-x="464" />
<glyph unicode="&#xa0;" horiz-adv-x="464" />
<glyph unicode="!" horiz-adv-x="735" d="M233 0v256h259v-256h-259zM236 1438h256l-50 -998h-157z" />
<glyph unicode="&#x22;" horiz-adv-x="720" d="M98 1438h195l-47 -486h-121zM428 1438h195l-48 -486h-122z" />
<glyph unicode="#" horiz-adv-x="1245" d="M31 401l12 168h250l22 338h-247l12 170h246l24 361h170l-24 -361h270l22 361h170l-22 -361h278l-14 -170h-276l-23 -338h277l-13 -168h-276l-25 -401h-170l25 401h-268l-25 -401h-172l25 401h-248zM463 569h268l23 338h-271z" />
<glyph unicode="$" horiz-adv-x="1234" d="M80 221l110 133q85 -95 230 -145v477q-156 45 -231.5 129.5t-75.5 220.5q0 142 82.5 234t224.5 127v295h119v-277q36 4 59 4q45 0 123 -8v281h121v-306q154 -43 276 -153l-119 -131q-67 64 -157 102v-430q305 -93 305 -350q0 -149 -81.5 -246t-223.5 -139v-303h-121v282 q-47 -6 -94 -6q-30 0 -88 4v-280h-119v299q-208 48 -340 186zM293 1042q0 -137 127 -180v365q-60 -25 -93.5 -72.5t-33.5 -112.5zM539 182q62 -8 94 -8q30 0 88 8v441q-11 3 -81 16.5t-101 22.5v-480zM539 831q139 -22 182 -32v440q-75 14 -133 14q-33 0 -49 -2v-420z M842 213q127 65 127 201q0 133 -127 182v-383z" />
<glyph unicode="%" horiz-adv-x="1710" d="M61 1004q0 197 87 324.5t239 127.5q153 0 239.5 -127t86.5 -325q0 -128 -37 -229.5t-112 -162.5t-177 -61q-152 0 -239 128.5t-87 324.5zM205 0l1098 1438h194l-1100 -1438h-192zM225 1001q0 -146 37.5 -224.5t124.5 -78.5t124.5 78.5t37.5 224.5q0 150 -37.5 229 t-124.5 79t-124.5 -79t-37.5 -229zM995 432q0 197 87.5 325t238.5 128q103 0 178.5 -61t112.5 -162t37 -230q0 -128 -37 -229t-112.5 -162t-178.5 -61q-151 0 -238.5 128.5t-87.5 323.5zM1161 430q0 -303 160 -303q164 0 164 303q0 150 -38.5 228.5t-125.5 78.5 q-86 0 -123 -78.5t-37 -228.5z" />
<glyph unicode="&#x26;" horiz-adv-x="1449" d="M68 373q0 87 24.5 156.5t71 119t97 83t120.5 65.5q-119 151 -119 313q0 157 109.5 262t296.5 105q158 0 263 -82.5t105 -233.5q0 -51 -11 -95t-28 -77.5t-47 -64t-57 -52t-69 -44t-73.5 -36.5t-78.5 -34l340 -359q137 197 164 447l190 -45q-59 -303 -238 -527l261 -274 h-265l-135 139q-202 -174 -457 -174q-130 0 -233.5 45t-167 139t-63.5 224zM281 393q0 -113 75 -185.5t187 -72.5q189 0 331 129l-389 414q-97 -48 -150.5 -114.5t-53.5 -170.5zM463 1122q0 -129 102 -252q45 19 74 32.5t65.5 34t59 41t43.5 47.5t31 60t10 72 q0 75 -48 118.5t-126 43.5q-104 0 -157.5 -54.5t-53.5 -142.5z" />
<glyph unicode="'" horiz-adv-x="393" d="M98 1438h195l-47 -486h-121z" />
<glyph unicode="(" horiz-adv-x="516" d="M72 543q0 317 116.5 569t323.5 406l104 -134q-155 -134 -248.5 -353t-93.5 -488t94 -491t248 -355l-104 -127q-207 152 -323.5 404t-116.5 569z" />
<glyph unicode=")" horiz-adv-x="516" d="M-100 -299q155 133 248.5 352.5t93.5 489.5q0 269 -94 491t-248 355l104 127q207 -154 323.5 -405.5t116.5 -567.5q0 -317 -116.5 -569t-323.5 -406z" />
<glyph unicode="*" horiz-adv-x="784" d="M39 1094l67 198l236 -159l-61 305h231l-78 -305l240 153l71 -194l-278 -39l203 -217l-189 -115l-94 280l-117 -268l-184 119l219 201z" />
<glyph unicode="+" d="M41 532v173h453v452h170v-452h454v-173h-454v-452h-170v452h-453z" />
<glyph unicode="," horiz-adv-x="477" d="M8 -377l189 606h233l-266 -606h-156z" />
<glyph unicode="-" horiz-adv-x="532" d="M41 504v170h451v-170h-451z" />
<glyph unicode="." horiz-adv-x="468" d="M111 0v244h247v-244h-247z" />
<glyph unicode="/" horiz-adv-x="851" d="M-16 0l749 1438h195l-750 -1438h-194z" />
<glyph unicode="0" horiz-adv-x="1230" d="M74 721q0 209 69 381.5t193 272.5t278 100q155 0 280.5 -100t195 -272.5t69.5 -381.5t-69.5 -381.5t-195 -272.5t-280.5 -100q-154 0 -278 100t-193 272.5t-69 381.5zM287 719q0 -156 39.5 -284.5t115 -205.5t172.5 -77q99 0 175 77t115.5 205.5t39.5 284.5 q0 158 -39.5 286.5t-115.5 205.5t-175 77q-97 0 -172.5 -76.5t-115 -205.5t-39.5 -287z" />
<glyph unicode="1" horiz-adv-x="1230" d="M154 1102l471 336h190v-1260h289v-178h-823v178h329v1041l-360 -261z" />
<glyph unicode="2" horiz-adv-x="1230" d="M76 0v106q254 201 416 343.5t254.5 250.5t127.5 184.5t35 153.5q0 254 -295 254q-226 0 -407 -164l-109 156q215 191 520 191q254 0 382 -110t128 -314q0 -190 -171 -392t-537 -477h713v-182h-1057z" />
<glyph unicode="3" horiz-adv-x="1230" d="M63 158l107 147q168 -162 428 -162q136 0 225.5 64t89.5 178q0 69 -19.5 117.5t-67 85t-132 54t-209.5 17.5v156q121 0 205.5 21t127.5 59t61 81.5t18 98.5q0 109 -82 166t-215 57q-255 0 -424 -163l-106 147q112 99 241.5 146t298.5 47q231 0 367.5 -98t136.5 -285 q0 -134 -91 -229t-263 -120q191 -29 282 -119t91 -251q0 -130 -73 -223.5t-193.5 -138t-272.5 -44.5q-163 0 -290.5 46t-240.5 145z" />
<glyph unicode="4" horiz-adv-x="1230" d="M33 391v109l751 938h201v-871h203v-176h-203v-391h-201v391h-751zM289 567h495v635z" />
<glyph unicode="5" horiz-adv-x="1230" d="M88 147l94 158q172 -164 412 -164q158 0 244 84.5t86 216.5q0 135 -85 220.5t-247 85.5q-119 0 -211 -16.5t-193 -55.5v762h865v-183h-672v-368q115 31 250 31q130 0 229 -39t158 -106t88 -149.5t29 -177.5q0 -100 -33 -185.5t-97 -152t-167.5 -104t-235.5 -37.5 q-164 0 -285 42.5t-229 137.5z" />
<glyph unicode="6" horiz-adv-x="1230" d="M80 711q0 221 82 395t232 271.5t343 97.5q245 0 420 -129l-100 -158q-135 106 -320 106q-96 0 -176 -33.5t-141 -99.5t-96.5 -173.5t-36.5 -246.5q78 94 190.5 143.5t239.5 49.5q146 0 252 -62.5t157.5 -166t51.5 -234.5q0 -222 -141 -363t-375 -141q-170 0 -302 92.5 t-206 262t-74 389.5zM303 575q23 -203 121 -315.5t235 -112.5q142 0 222 89.5t80 224.5q0 145 -69 227t-204 82q-213 0 -385 -195z" />
<glyph unicode="7" horiz-adv-x="1230" d="M106 1255v183h1059v-92q-349 -667 -596 -1346h-225q208 587 563 1255h-801z" />
<glyph unicode="8" horiz-adv-x="1230" d="M70 387q0 126 77.5 221t202.5 131q-254 85 -254 334q0 177 138.5 289.5t379.5 112.5q242 0 381.5 -110t139.5 -292q0 -130 -67 -214t-191 -118q127 -39 205.5 -131t78.5 -223q0 -200 -144 -310t-403 -110q-252 0 -398 109t-146 311zM283 401q0 -120 86 -189t245 -69 q160 0 247 70t87 188q0 121 -88 192t-246 71q-152 0 -241.5 -76t-89.5 -187zM301 1065q0 -118 79.5 -184t233.5 -66q151 0 233.5 68.5t82.5 181.5q0 110 -83.5 178t-232.5 68q-145 0 -229 -71.5t-84 -174.5z" />
<glyph unicode="9" horiz-adv-x="1230" d="M72 971q0 222 140 363t376 141q256 0 417.5 -205.5t161.5 -538.5q0 -221 -82 -395t-231.5 -271.5t-341.5 -97.5q-244 0 -422 129l100 158q139 -107 322 -107q96 0 175.5 33.5t141 99.5t96.5 173.5t36 246.5q-77 -93 -189.5 -142.5t-239.5 -49.5q-219 0 -339.5 130.5 t-120.5 332.5zM287 981q0 -145 69.5 -227t204.5 -82q212 0 383 194q-23 204 -120.5 316t-235.5 112q-142 0 -221.5 -89t-79.5 -224z" />
<glyph unicode=":" horiz-adv-x="497" d="M125 0v244h246v-244h-246zM125 799v243h246v-243h-246z" />
<glyph unicode=";" horiz-adv-x="477" d="M8 -377l189 606h233l-266 -606h-156zM127 799v243h246v-243h-246z" />
<glyph unicode="&#x3c;" d="M156 553v145l768 529l92 -148l-656 -452l656 -453l-88 -154z" />
<glyph unicode="=" d="M41 289v170h1077v-170h-1077zM41 780v170h1077v-170h-1077z" />
<glyph unicode="&#x3e;" d="M145 168l656 450l-656 455l88 152l773 -533v-143l-768 -531z" />
<glyph unicode="?" horiz-adv-x="1085" d="M12 1284q219 191 531 191q252 0 383 -102.5t131 -289.5q0 -76 -25.5 -139.5t-66.5 -108t-90.5 -84t-99.5 -75t-91 -73t-66.5 -86.5t-25.5 -107h-197q1 76 26 139t64.5 106.5t86.5 82t93.5 73t85.5 70.5t63 84t24 104q0 225 -299 225q-242 0 -420 -161zM367 0v254h260 v-254h-260z" />
<glyph unicode="@" horiz-adv-x="1783" d="M96 520q0 148 53.5 283t150 238.5t242.5 165t320 61.5q428 0 428 -394v-688h-188v117q-102 -145 -299 -145q-132 0 -232 93.5t-100 250.5q0 90 32.5 161t87.5 114.5t123 66t144 22.5q128 0 244 -43v62q0 116 -58 169.5t-184 53.5q-109 0 -202 -32t-158.5 -87t-112 -128.5 t-68.5 -157t-22 -171.5q0 -90 22.5 -174.5t70.5 -160t116.5 -132t167 -89.5t215.5 -33q152 0 273 46.5t196.5 127t115 183.5t39.5 220q0 194 -102 361l148 84q129 -204 129 -441q0 -118 -31 -226.5t-97 -203.5t-160 -165t-228.5 -110t-294.5 -40q-178 0 -326 58.5t-247 159 t-153.5 235.5t-54.5 288zM674 510q0 -92 54.5 -141.5t135.5 -49.5q74 0 138 38.5t100 107.5v213q-98 39 -203 39q-102 0 -163.5 -49t-61.5 -158z" />
<glyph unicode="A" horiz-adv-x="1249" d="M-41 0l524 1438h285l522 -1438h-229l-139 401h-596l-140 -401h-227zM387 578h473l-233 677h-2z" />
<glyph unicode="B" horiz-adv-x="1345" d="M137 0v1438h680q208 0 319 -96.5t111 -245.5q0 -66 -22.5 -123.5t-66.5 -103.5t-115.5 -73.5t-163.5 -29.5q101 -2 180.5 -33t127.5 -82.5t72.5 -116t24.5 -137.5q0 -129 -63.5 -221t-161.5 -134t-217 -42h-705zM354 176h453q109 0 179.5 70t70.5 174q0 110 -71 185 t-179 75h-453v-504zM354 842h441q102 0 166.5 66t64.5 149q0 92 -59 146t-172 54h-441v-415z" />
<glyph unicode="C" horiz-adv-x="1251" d="M74 725q0 215 78.5 384.5t228.5 267.5t346 98q159 0 287 -64t209 -188l-148 -133q-115 192 -340 192q-211 0 -324.5 -152t-113.5 -405q0 -165 48.5 -291t148.5 -201t241 -75q235 0 350 219l152 -135q-82 -136 -213 -205.5t-297 -69.5q-150 0 -273.5 58t-206.5 159.5 t-128 240.5t-45 300z" />
<glyph unicode="D" horiz-adv-x="1415" d="M137 0v1438h510q141 0 257.5 -37.5t197 -103.5t135.5 -157t80.5 -196.5t25.5 -224.5q0 -116 -26 -220.5t-82 -196t-136.5 -158.5t-196.5 -105.5t-255 -38.5h-510zM354 188h305q114 0 201.5 41t141 114t80 167.5t26.5 208.5q0 115 -26.5 208.5t-79.5 165t-140.5 111 t-202.5 39.5h-305v-1055z" />
<glyph unicode="E" horiz-adv-x="1191" d="M137 0v1438h1014v-185h-797v-405h480v-172h-480v-498h797v-178h-1014z" />
<glyph unicode="F" horiz-adv-x="1060" d="M137 0v1438h996v-185h-779v-475h484v-178h-484v-600h-217z" />
<glyph unicode="G" horiz-adv-x="1347" d="M74 721q0 215 79.5 385.5t231 269.5t350.5 99q164 0 294 -62t214 -184l-145 -139q-116 192 -353 192q-214 0 -331 -148.5t-117 -412.5q0 -256 121.5 -410.5t316.5 -154.5q200 0 314 137v328h-404v174h621v-586q-87 -117 -227.5 -179.5t-311.5 -62.5q-149 0 -273.5 60 t-206.5 163t-127.5 240t-45.5 291z" />
<glyph unicode="H" horiz-adv-x="1400" d="M137 0v1438h217v-578h693v578h215v-1438h-215v662h-693v-662h-217z" />
<glyph unicode="I" horiz-adv-x="491" d="M137 0v1438h217v-1438h-217z" />
<glyph unicode="J" horiz-adv-x="1126" d="M-20 221l143 154q49 -89 137 -146t189 -57q167 0 253 100t86 287v879h218l-2 -883q0 -131 -32.5 -237.5t-98 -185.5t-171 -122t-243.5 -43q-309 0 -479 254z" />
<glyph unicode="K" horiz-adv-x="1241" d="M137 0v1438h217v-791l619 791h252l-510 -645l581 -793h-268l-459 623l-215 -267v-356h-217z" />
<glyph unicode="L" horiz-adv-x="1085" d="M137 0v1438h217v-1254h731v-184h-948z" />
<glyph unicode="M" horiz-adv-x="1736" d="M137 0v1438h318l417 -1082l416 1082h309v-1438h-211v1165l-458 -1165h-125l-453 1165v-1165h-213z" />
<glyph unicode="N" horiz-adv-x="1417" d="M137 0v1438h279l651 -1102v1102h213v-1438h-246l-684 1165v-1165h-213z" />
<glyph unicode="O" horiz-adv-x="1449" d="M74 725q0 159 45 296.5t127.5 238t205.5 158t271 57.5q197 0 347 -99t228 -268.5t78 -382.5q0 -159 -46 -298t-129 -241t-206.5 -160.5t-271.5 -58.5t-271 58.5t-205 160.5t-127.5 241t-45.5 298zM297 725q0 -158 49 -285.5t147 -205.5t230 -78q134 0 232 78t146 205.5 t48 285.5q0 161 -48 286.5t-146 200t-232 74.5q-133 0 -230.5 -74t-146.5 -200t-49 -287z" />
<glyph unicode="P" horiz-adv-x="1341" d="M137 0v1438h678q114 0 205 -37.5t148.5 -103t87.5 -150.5t30 -184q0 -91 -30.5 -173.5t-87.5 -147t-146.5 -102.5t-198.5 -38h-469v-502h-217zM354 686h453q112 0 179 78t67 199q0 135 -63.5 213.5t-170.5 78.5h-465v-569z" />
<glyph unicode="Q" horiz-adv-x="1449" d="M74 723q0 214 77 384t225.5 269t344.5 99q199 0 349 -99t228 -269t78 -384q0 -163 -47.5 -303.5t-136.5 -243.5l194 -176h-221l-86 76q-154 -107 -358 -107q-196 0 -344.5 100.5t-225.5 270.5t-77 383zM297 723q0 -158 48.5 -285.5t146 -205.5t229.5 -78q120 0 203 65 l-332 303h227l217 -200q113 156 113 401q0 161 -48.5 287.5t-147 201t-232.5 74.5q-198 0 -311 -158t-113 -405z" />
<glyph unicode="R" horiz-adv-x="1366" d="M137 0v1438h666q114 0 204.5 -35t147.5 -96t87 -141.5t30 -174.5q0 -178 -114.5 -291.5t-305.5 -124.5l479 -575h-272l-449 551h-256v-551h-217zM354 729h445q114 0 179.5 68.5t65.5 187.5q0 130 -64.5 200t-168.5 70h-457v-526z" />
<glyph unicode="S" horiz-adv-x="1280" d="M59 193l121 145q86 -93 209 -142t258 -49q145 0 238.5 61t93.5 183q0 103 -84.5 160t-282.5 88q-252 40 -383 139t-131 279q0 129 70 225.5t187.5 144.5t265.5 48q338 0 555 -199l-127 -148q-168 162 -435 162q-129 0 -213 -54.5t-84 -156.5q0 -101 75.5 -158t256.5 -81 q283 -38 417 -142t134 -282q0 -111 -43.5 -197.5t-120.5 -141t-177 -82.5t-218 -28q-372 0 -582 226z" />
<glyph unicode="T" horiz-adv-x="1165" d="M-10 1249v189h1186v-189h-486v-1249h-215v1249h-485z" />
<glyph unicode="U" horiz-adv-x="1402" d="M123 578v860h215v-860q0 -95 18.5 -168t50.5 -119.5t79 -76t99.5 -41t116.5 -11.5t117 12t100 42t79 76.5t50.5 119t18.5 166.5v860h213v-860q0 -156 -45 -275t-125 -191t-183 -107.5t-227 -35.5t-226.5 35.5t-182 107.5t-124 191t-44.5 275z" />
<glyph unicode="V" horiz-adv-x="1249" d="M-41 1438h229l437 -1233l434 1233h231l-524 -1438h-285z" />
<glyph unicode="W" horiz-adv-x="2035" d="M0 1438h223l352 -1202l343 1202h200l348 -1202l342 1202h228l-432 -1438h-279l-309 1104l-309 -1104h-279z" />
<glyph unicode="X" horiz-adv-x="1333" d="M-6 0l545 729l-527 709h254l402 -537l401 537h250l-528 -707l546 -731h-254l-419 559l-420 -559h-250z" />
<glyph unicode="Y" horiz-adv-x="1273" d="M-39 1438h262l418 -594l422 594h248l-568 -787v-651h-215v651z" />
<glyph unicode="Z" horiz-adv-x="1239" d="M41 0v45l827 1204h-792v189h1124v-45l-823 -1209h801v-184h-1137z" />
<glyph unicode="[" horiz-adv-x="573" d="M147 -393v1876h508v-168h-313v-1546h313v-162h-508z" />
<glyph unicode="\" horiz-adv-x="851" d="M-18 1438h196l748 -1438h-193z" />
<glyph unicode="]" horiz-adv-x="573" d="M-82 -227h313v1546h-313v164h508v-1876h-508v166z" />
<glyph unicode="^" horiz-adv-x="1005" d="M55 780l363 846h162l370 -846h-190l-262 625l-252 -625h-191z" />
<glyph unicode="_" d="M41 -115h1077v-172h-1077v172z" />
<glyph unicode="`" horiz-adv-x="1015" d="M262 1444h221l262 -303h-170z" />
<glyph unicode="a" horiz-adv-x="1058" d="M76 315q0 90 33.5 161t90.5 114t126.5 65.5t146.5 22.5q152 0 262 -41v55q0 102 -59 159.5t-166 57.5q-81 0 -158.5 -34.5t-134.5 -96.5l-90 144q86 73 191.5 113t213.5 40q117 0 207 -39t144.5 -122t54.5 -199v-715h-203v117q-45 -71 -131 -107.5t-182 -36.5 q-90 0 -167 37.5t-128 117t-51 187.5zM291 324q0 -94 53 -142.5t135 -48.5q76 0 149 39.5t107 106.5v210q-96 41 -219 41q-102 0 -163.5 -49t-61.5 -157z" />
<glyph unicode="b" horiz-adv-x="1124" d="M127 0v1438l203 59v-553q42 58 122 94.5t158 36.5q124 0 223 -74t153 -201t54 -282t-55 -280.5t-153.5 -197t-221.5 -71.5q-90 0 -165.5 31t-114.5 88v-88h-203zM330 279q39 -61 99.5 -95t125.5 -34q129 0 198.5 100t69.5 266q0 167 -69 273t-195 106q-61 0 -126 -38 t-103 -95v-483z" />
<glyph unicode="c" horiz-adv-x="983" d="M82 518q0 156 65 284t180 200.5t255 72.5q223 0 358 -168l-123 -127q-50 58 -104 86.5t-125 28.5q-126 0 -207.5 -106t-81.5 -273q0 -164 82 -266.5t211 -102.5q142 0 235 136l121 -129q-141 -187 -366 -187q-216 0 -358 155.5t-142 395.5z" />
<glyph unicode="d" horiz-adv-x="1122" d="M82 518q0 155 54 282t152.5 201t221.5 74q77 0 158 -37t125 -94v494l202 59v-1497h-202v88q-42 -57 -117 -88t-164 -31q-123 0 -221.5 71.5t-153.5 197t-55 280.5zM297 516q0 -166 70.5 -267.5t199.5 -101.5q65 0 125.5 35.5t100.5 96.5v483q-38 57 -103.5 95t-126.5 38 q-126 0 -196 -107t-70 -272z" />
<glyph unicode="e" horiz-adv-x="1062" d="M82 518q0 156 62.5 283t176 200.5t257.5 73.5q97 0 179.5 -40.5t140.5 -114.5q59 -74 85 -186q16 -70 16 -147q0 -48 -6 -100h-692q3 -158 88.5 -251t208.5 -93q76 0 142 33.5t106 97.5l112 -131q-139 -176 -374 -176q-219 0 -360.5 154t-141.5 397zM309 641h486 q-1 123 -64 194.5t-158 71.5q-96 0 -170 -73.5t-94 -192.5z" />
<glyph unicode="f" horiz-adv-x="641" d="M55 866v176h115v39q0 89 20 159t53 114t78.5 73t94 40.5t102.5 11.5q148 0 246 -56l-68 -159q-62 45 -155 45q-84 0 -126 -54t-42 -174v-39h272v-176h-272v-866h-203v866h-115z" />
<glyph unicode="g" horiz-adv-x="1126" d="M84 -285l96 158q137 -121 322 -121q128 0 210.5 69t82.5 202v67q-89 -113 -277 -113q-187 0 -309.5 153t-122.5 388q0 155 54 282t153 201t223 74q77 0 157 -37t122 -94v98h204v-997q0 -124 -40 -217.5t-110 -148t-156.5 -81t-188.5 -26.5q-244 0 -420 143zM301 516 q0 -165 70.5 -264.5t199.5 -99.5q66 0 125.5 33t98.5 94v483q-37 57 -102 95t-126 38q-126 0 -196 -106.5t-70 -272.5z" />
<glyph unicode="h" horiz-adv-x="1079" d="M127 0v1438l203 59v-543q137 121 311 121q155 0 242.5 -97.5t87.5 -303.5v-674h-203v653q0 238 -186 238q-132 0 -252 -117v-774h-203z" />
<glyph unicode="i" horiz-adv-x="462" d="M127 1255v183h207v-183h-207zM129 0v1042h203v-1042h-203z" />
<glyph unicode="j" horiz-adv-x="466" d="M-260 -383l49 166q91 -43 166 -43q81 0 130.5 57.5t49.5 182.5v1062h203v-1062q0 -109 -28.5 -190t-80.5 -127.5t-117 -68.5t-145 -22q-106 0 -227 45zM133 1255v183h207v-183h-207z" />
<glyph unicode="k" horiz-adv-x="1007" d="M127 0v1438l203 59v-969l397 514h236l-371 -475l416 -567h-246l-305 420l-127 -152v-268h-203z" />
<glyph unicode="l" horiz-adv-x="458" d="M127 0v1438l203 59v-1497h-203z" />
<glyph unicode="m" horiz-adv-x="1712" d="M127 0v1042h203v-88q145 119 311 119q199 0 272 -158q74 78 174.5 118t186.5 40q315 0 315 -399v-674h-203v653q0 128 -45.5 183t-130.5 55q-65 0 -137 -34t-123 -93q11 -72 11 -125v-639h-205v653q0 128 -46 183t-130 55q-66 0 -132 -31.5t-118 -85.5v-774h-203z" />
<glyph unicode="n" horiz-adv-x="1079" d="M127 0v1042h203v-88q137 121 311 121q155 0 242.5 -97.5t87.5 -303.5v-674h-203v653q0 238 -186 238q-132 0 -252 -117v-774h-203z" />
<glyph unicode="o" horiz-adv-x="1134" d="M82 522q0 243 139 398t346 155q208 0 347 -155t139 -398q0 -240 -139.5 -397.5t-346.5 -157.5q-135 0 -245.5 71t-175 198.5t-64.5 285.5zM299 518q0 -167 70.5 -269t197.5 -102q128 0 198.5 102t70.5 269q0 171 -70.5 274t-198.5 103q-127 0 -197.5 -103t-70.5 -274z " />
<glyph unicode="p" horiz-adv-x="1122" d="M127 -395v1437h203v-98q41 56 122 93.5t158 37.5q124 0 222.5 -74.5t152 -201t53.5 -281.5t-55 -280.5t-153.5 -197t-221.5 -71.5q-89 0 -165 31t-113 88v-483h-203zM330 279q38 -61 99 -96.5t126 -35.5q127 0 197.5 101.5t70.5 267.5q0 165 -70 272t-196 107 q-60 0 -125 -38t-102 -95v-483z" />
<glyph unicode="q" horiz-adv-x="1122" d="M82 518q0 155 54 282t152.5 201t221.5 74q78 0 160 -37.5t123 -93.5v98h202v-1437h-202v483q-39 -57 -115.5 -88t-165.5 -31q-123 0 -221.5 71.5t-153.5 197t-55 280.5zM297 516q0 -166 70.5 -267.5t199.5 -101.5q65 0 125.5 35.5t100.5 96.5v483q-38 57 -103.5 95 t-126.5 38q-126 0 -196 -107t-70 -272z" />
<glyph unicode="r" horiz-adv-x="735" d="M127 0v1042h203v-84q127 115 295 115q63 0 131 -22v-205q-69 39 -170 39q-64 0 -133 -29t-123 -76v-780h-203z" />
<glyph unicode="s" horiz-adv-x="976" d="M55 123l101 158q52 -65 151 -103.5t195 -38.5q95 0 152 39t57 109q0 34 -13.5 60t-33.5 42t-55 28t-67 18.5t-81 13.5q-51 9 -88 17.5t-83 23.5t-77 37t-59 53t-42 75.5t-14 100.5q0 151 115.5 235t284.5 84q106 0 213 -34t182 -95l-107 -151q-44 49 -125.5 77.5 t-166.5 28.5q-86 0 -140.5 -36.5t-54.5 -104.5q0 -30 13 -53.5t32 -38t53 -26t64.5 -17.5t77.5 -13q62 -9 108 -19.5t99.5 -34t88 -56t57.5 -87t23 -124.5q0 -103 -57.5 -177.5t-151.5 -110.5t-212 -36q-120 0 -238.5 41t-200.5 115z" />
<glyph unicode="t" horiz-adv-x="763" d="M37 866v176h133v209l203 70v-279h332v-176h-332v-493q0 -128 42.5 -178t131.5 -50q83 0 145 48l62 -170q-123 -56 -248 -56q-81 0 -140.5 19t-104.5 63t-68 123t-23 193v501h-133z" />
<glyph unicode="u" horiz-adv-x="1093" d="M123 371v671h203v-653q0 -235 174 -235q148 0 262 114v774h203v-1042h-203v88q-134 -119 -309 -119q-156 0 -243 97t-87 305z" />
<glyph unicode="v" horiz-adv-x="952" d="M-16 1042h225l266 -819l270 819h222l-377 -1042h-228z" />
<glyph unicode="w" horiz-adv-x="1585" d="M-16 1042h219l258 -819l237 819h183l245 -819l263 819h213l-367 -1042h-221l-223 723l-222 -723h-223z" />
<glyph unicode="x" horiz-adv-x="983" d="M10 0l359 526l-349 516h240l232 -354l227 354h242l-349 -514l359 -528h-242l-240 369l-241 -369h-238z" />
<glyph unicode="y" horiz-adv-x="952" d="M-37 -367l55 183q67 -39 154 -39q69 0 119 41.5t80 152.5l-387 1071h223l268 -831l273 831h219l-387 -1065q-28 -74 -51.5 -126.5t-58 -106.5t-71.5 -86.5t-88.5 -53t-113.5 -20.5q-130 0 -234 49z" />
<glyph unicode="z" horiz-adv-x="968" d="M47 0v47l565 819h-534v176h840v-53l-558 -813h545v-176h-858z" />
<glyph unicode="{" horiz-adv-x="614" d="M61 479v146q45 0 77.5 29t48.5 77t23 94.5t7 94.5q0 260 108.5 410t307.5 186l37 -170q-140 -26 -199 -131.5t-59 -311.5q0 -152 -34 -241.5t-99 -106.5q71 -22 105 -103t34 -243q0 -99 12 -175t39 -140t78 -101.5t123 -44.5l-35 -170q-109 10 -192 64.5t-131 140.5 t-71.5 186.5t-23.5 214.5q0 154 -35.5 224.5t-120.5 70.5z" />
<glyph unicode="|" horiz-adv-x="604" d="M205 -395v2099h194v-2099h-194z" />
<glyph unicode="}" horiz-adv-x="614" d="M-55 -254q140 26 199 131t59 309q0 313 133 351q-72 22 -105.5 102t-33.5 244q0 77 -7 140.5t-25 121.5t-46 98.5t-72 67t-102 32.5l35 170q109 -10 191.5 -64.5t130.5 -140.5t71.5 -186.5t23.5 -214.5q0 -154 35.5 -224.5t120.5 -70.5v-145q-45 0 -77.5 -29t-48.5 -77 t-23 -94.5t-7 -94.5q0 -260 -108 -410t-307 -186z" />
<glyph unicode="~" d="M35 600q115 197 311 197q58 0 112 -16.5t95 -40t80 -47t84.5 -40t91.5 -16.5q71 0 125 43.5t82 112.5l108 -117q-63 -101 -142.5 -158t-166.5 -57q-56 0 -108 17t-92.5 41t-79.5 48t-87 41t-98 17q-73 0 -130.5 -42t-80.5 -104z" />
<glyph unicode="&#xa1;" horiz-adv-x="735" d="M233 784v256h259v-256h-259zM236 -397l47 997h157l49 -997h-253z" />
<glyph unicode="&#xa2;" horiz-adv-x="978" d="M76 915q0 213 114.5 365.5t296.5 183.5v254h164v-250q168 -23 285 -161l-119 -127q-41 45 -79 70t-87 32v-725q100 18 174 125l117 -129q-118 -157 -291 -180v-287h-164v289q-182 29 -296.5 178t-114.5 362zM281 915q0 -135 55 -229t151 -123v713q-94 -29 -150 -127 t-56 -234z" />
<glyph unicode="&#xa3;" horiz-adv-x="1130" d="M55 524v168h88v371q0 132 70 227.5t182 140t252 44.5q303 0 512 -168l-112 -160q-75 71 -181 108t-221 37q-125 0 -206 -68t-81 -180v-352h373v-168h-373v-336h701v-188h-916v524h-88z" />
<glyph unicode="&#xa5;" horiz-adv-x="1273" d="M-39 1438h260l420 -596l424 596h246l-502 -688h352v-152h-418v-190h418v-154h-418v-254h-215v254h-419v154h419v190h-419v152h352z" />
<glyph unicode="&#xa7;" horiz-adv-x="1296" d="M68 592q0 208 157 323q-84 90 -84 232q0 194 142 301.5t364 107.5q327 0 541 -196l-125 -139q-166 163 -420 163q-126 0 -207.5 -56t-81.5 -159t76 -161.5t254 -79.5q545 -69 545 -418q0 -206 -158 -328q82 -88 82 -227q0 -130 -67 -224t-180 -140t-259 -46 q-328 0 -538 195l122 141q167 -164 420 -164q128 0 209.5 55.5t81.5 159.5q0 102 -76 160.5t-254 81.5q-544 69 -544 418zM281 610q0 -102 82 -159.5t276 -88.5q160 -26 248 -69q129 60 129 199q0 101 -83 159t-276 88q-147 23 -249 68q-127 -59 -127 -197z" />
<glyph unicode="&#xa8;" horiz-adv-x="1001" d="M258 1184v196h176v-196h-176zM674 1184v196h176v-196h-176z" />
<glyph unicode="&#xa9;" horiz-adv-x="1609" d="M61 723q0 212 91 383t261 270t390 99q169 0 311 -60t236 -162.5t146 -239t52 -290.5q0 -215 -91 -386.5t-262 -270.5t-392 -99q-220 0 -390 99t-261 270.5t-91 386.5zM236 723q0 -262 156 -433t411 -171q173 0 305 79.5t201 216t69 308.5q0 173 -69 308.5t-200.5 213.5 t-305.5 78q-256 0 -411.5 -168.5t-155.5 -431.5zM401 725q0 208 120.5 335.5t309.5 127.5q215 0 334 -148l-100 -110q-81 106 -229 106q-117 0 -184.5 -82t-67.5 -231q0 -145 68 -225t186 -80q72 0 135 33t102 94l99 -111q-60 -82 -149 -124t-194 -42q-191 0 -310.5 124.5 t-119.5 332.5z" />
<glyph unicode="&#xaa;" horiz-adv-x="1042" d="M68 715q0 90 33.5 161t90.5 114.5t126.5 66t146.5 22.5q144 0 260 -43v56q0 103 -58 160t-165 57q-81 0 -159 -34.5t-134 -96.5l-90 143q85 74 192 114t213 40q186 0 296 -100.5t110 -291.5v-684h-205v117q-50 -72 -136 -108.5t-183 -36.5q-62 0 -122 23t-108.5 65.5 t-78 109t-29.5 146.5zM283 723q0 -92 53.5 -141.5t134.5 -49.5q76 0 147 39.5t107 106.5v213q-98 39 -217 39q-102 0 -163.5 -49.5t-61.5 -157.5z" />
<glyph unicode="&#xab;" horiz-adv-x="1169" d="M59 692v78l451 541l106 -121l-354 -455l354 -456l-106 -119zM553 692v78l451 541l106 -121l-354 -455l354 -456l-106 -119z" />
<glyph unicode="&#xac;" d="M41 500v170h1030v-670h-186v500h-844z" />
<glyph unicode="&#xad;" horiz-adv-x="532" d="M41 504v170h451v-170h-451z" />
<glyph unicode="&#xae;" horiz-adv-x="903" d="M53 1051q0 -173 114.5 -292.5t285.5 -119.5q168 0 281.5 119.5t113.5 292.5t-113.5 292t-281.5 119q-171 0 -285.5 -119t-114.5 -292zM172 1051q0 134 75.5 219.5t205.5 85.5t204 -85.5t74 -219.5q0 -112 -55 -195l-125 135q125 6 125 135q0 61 -36 101.5t-103 40.5h-271 v-422h111v139h57l123 -139h111q-82 -105 -215 -105q-123 0 -202 89t-79 221zM377 1065v111h133q51 0 55 -52v-2q0 -57 -55 -57h-133z" />
<glyph unicode="&#xaf;" horiz-adv-x="1075" d="M332 1196v145h491v-145h-491z" />
<glyph unicode="&#xb0;" horiz-adv-x="790" d="M61 993q0 202 88.5 332.5t243.5 130.5q158 0 247 -130.5t89 -332.5q0 -200 -89.5 -330.5t-246.5 -130.5q-103 0 -179.5 62.5t-114.5 165.5t-38 233zM231 993q0 -149 37.5 -228t124.5 -79q88 0 127 79t39 228q0 152 -38.5 231t-127.5 79q-87 0 -124.5 -79t-37.5 -231z" />
<glyph unicode="&#xb1;" d="M41 0v172h1077v-172h-1077zM41 737v172h453v453h170v-453h454v-172h-454v-452h-170v452h-453z" />
<glyph unicode="&#xb4;" horiz-adv-x="960" d="M184 1141l260 303h222l-314 -303h-168z" />
<glyph unicode="&#xb5;" horiz-adv-x="1097" d="M109 -395l22 803v634h207v-653q0 -235 172 -235q145 0 262 114v774h205v-1042h-205v88q-134 -119 -309 -119q-100 0 -160 43l14 -407h-208z" />
<glyph unicode="&#xb6;" horiz-adv-x="1329" d="M53 963q0 99 30 184t87.5 150.5t148.5 103t205 37.5h678v-1438h-194v502h-146v-502h-196v502h-150q-109 0 -198 38t-146 102t-88 146.5t-31 174.5z" />
<glyph unicode="&#xb7;" horiz-adv-x="477" d="M102 449v274h273v-274h-273z" />
<glyph unicode="&#xb8;" horiz-adv-x="1316" d="M526 -387l62 96q73 -41 160 -41q65 0 103 20t38 56q0 80 -160 80q-24 0 -74 -4l111 180h121l-62 -88q107 -3 165.5 -48.5t58.5 -125.5q0 -82 -81 -135.5t-204 -53.5q-67 0 -131.5 17.5t-106.5 46.5z" />
<glyph unicode="&#xba;" horiz-adv-x="1120" d="M74 922q0 161 65 288t176 196t246 69q207 0 345 -155t138 -398q0 -158 -64 -285t-174 -197.5t-245 -70.5q-206 0 -346.5 157t-140.5 396zM291 920q0 -167 71 -270t199 -103q126 0 197 103t71 270q0 171 -70 272.5t-198 101.5t-199 -101.5t-71 -272.5z" />
<glyph unicode="&#xbb;" horiz-adv-x="1169" d="M59 279l355 454l-355 457l107 119l450 -531v-78l-450 -540zM553 279l354 454l-354 457l106 119l451 -531v-78l-451 -540z" />
<glyph unicode="&#xbf;" horiz-adv-x="1085" d="M16 -41q0 69 25 129t65.5 104.5t89.5 85.5t98.5 79t90.5 77.5t67.5 90t28.5 106.5h197q-1 -75 -26 -138t-64 -107t-86 -82.5t-94 -73t-85.5 -70.5t-62.5 -83.5t-24 -103.5q0 -225 299 -225q240 0 419 162l107 -152q-217 -190 -531 -190q-252 0 -383 102t-131 289z M446 786v256h261v-256h-261z" />
<glyph unicode="&#xc0;" horiz-adv-x="1249" d="M-41 0l524 1438h285l522 -1438h-229l-139 401h-596l-140 -401h-227zM309 1815h209l320 -281h-187zM387 578h473l-233 677h-2z" />
<glyph unicode="&#xc1;" horiz-adv-x="1249" d="M-41 0l524 1438h285l522 -1438h-229l-139 401h-596l-140 -401h-227zM387 578h473l-233 677h-2zM465 1534l299 281h209l-340 -281h-168z" />
<glyph unicode="&#xc2;" horiz-adv-x="1249" d="M-41 0l524 1438h285l522 -1438h-229l-139 401h-596l-140 -401h-227zM274 1536l273 279h162l268 -279h-189l-161 178l-168 -178h-185zM387 578h473l-233 677h-2z" />
<glyph unicode="&#xc3;" horiz-adv-x="1249" d="M-41 0l524 1438h285l522 -1438h-229l-139 401h-596l-140 -401h-227zM313 1640q39 71 82.5 102.5t106.5 31.5q32 0 67 -18t60 -39.5t57 -39.5t59 -18q34 0 58.5 26.5t44.5 88.5l86 -99q-47 -82 -92.5 -116.5t-106.5 -34.5q-39 0 -82.5 31t-84.5 61.5t-74 30.5 q-60 0 -95 -105zM387 578h473l-233 677h-2z" />
<glyph unicode="&#xc4;" horiz-adv-x="1249" d="M-41 0l524 1438h285l522 -1438h-229l-139 401h-596l-140 -401h-227zM322 1573v194h182v-194h-182zM387 578h473l-233 677h-2zM750 1573v194h182v-194h-182z" />
<glyph unicode="&#xc5;" horiz-adv-x="1249" d="M-41 0l524 1438h43q-67 24 -108 74.5t-41 113.5q0 88 73 147.5t177 59.5q103 0 176.5 -59.5t73.5 -147.5q0 -63 -42 -113.5t-110 -74.5h43l522 -1438h-229l-139 401h-596l-140 -401h-227zM387 578h473l-233 677h-2zM506 1624q0 -46 34 -75t87 -29t87 29t34 75 q0 49 -33.5 77t-87.5 28t-87.5 -28t-33.5 -77z" />
<glyph unicode="&#xc6;" horiz-adv-x="2019" d="M-162 0q119 169 1014 1438h1126v-183h-796v-409h479v-172h-479v-496h796v-178h-1013v412q-22 -9 -33 -11h-567q-159 -233 -275 -401h-252zM487 578h478v686q-79 -114 -239 -343.5t-239 -342.5z" />
<glyph unicode="&#xc7;" horiz-adv-x="1251" d="M74 725q0 215 78.5 384.5t228.5 267.5t346 98q159 0 287 -64t209 -188l-148 -133q-115 192 -340 192q-211 0 -324.5 -152t-113.5 -405q0 -165 48.5 -291t148.5 -201t241 -75q235 0 350 219l152 -135q-148 -246 -442 -271l-41 -59q107 -3 165 -48.5t58 -125.5 q0 -82 -81 -135.5t-204 -53.5q-67 0 -131 17.5t-106 46.5l61 96q73 -41 160 -41q65 0 103 20t38 56q0 80 -160 80q-23 0 -73 -4l90 149q-185 13 -322 115.5t-207.5 268t-70.5 372.5z" />
<glyph unicode="&#xc8;" horiz-adv-x="1191" d="M137 0v1438h1014v-185h-797v-405h480v-172h-480v-498h797v-178h-1014zM336 1815h209l319 -281h-186z" />
<glyph unicode="&#xc9;" horiz-adv-x="1191" d="M137 0v1438h1014v-185h-797v-405h480v-172h-480v-498h797v-178h-1014zM481 1534l299 281h209l-340 -281h-168z" />
<glyph unicode="&#xca;" horiz-adv-x="1191" d="M137 0v1438h1014v-185h-797v-405h480v-172h-480v-498h797v-178h-1014zM317 1536l273 279h162l268 -279h-189l-161 178l-168 -178h-185z" />
<glyph unicode="&#xcb;" horiz-adv-x="1191" d="M137 0v1438h1014v-185h-797v-405h480v-172h-480v-498h797v-178h-1014zM373 1573v194h182v-194h-182zM801 1573v194h182v-194h-182z" />
<glyph unicode="&#xcc;" horiz-adv-x="491" d="M-135 1815h209l319 -281h-186zM137 0v1438h217v-1438h-217z" />
<glyph unicode="&#xcd;" horiz-adv-x="491" d="M82 1534l299 281h209l-340 -281h-168zM137 0v1438h217v-1438h-217z" />
<glyph unicode="&#xce;" horiz-adv-x="491" d="M-104 1536l272 279h162l268 -279h-188l-162 178l-168 -178h-184zM137 0v1438h217v-1438h-217z" />
<glyph unicode="&#xcf;" horiz-adv-x="491" d="M-57 1573v194h182v-194h-182zM137 0v1438h217v-1438h-217zM371 1573v194h182v-194h-182z" />
<glyph unicode="&#xd0;" horiz-adv-x="1415" d="M51 655v170h86v613h510q141 0 257.5 -37.5t197 -104t135.5 -157.5t80.5 -196.5t25.5 -223.5q0 -116 -26 -220.5t-82 -196t-136.5 -158.5t-196.5 -105.5t-255 -38.5h-510v655h-86zM352 193h307q114 0 200.5 40t140 111.5t80 166t26.5 208.5t-26 207.5t-79 165.5 t-140 111.5t-202 39.5h-307v-418h199v-170h-199v-462z" />
<glyph unicode="&#xd1;" horiz-adv-x="1417" d="M137 0v1438h279l651 -1102v1102h213v-1438h-246l-684 1165v-1165h-213zM424 1640q39 71 82 102.5t106 31.5q32 0 67 -18t60.5 -39.5t57.5 -39.5t59 -18q34 0 58 26.5t44 88.5l86 -99q-48 -82 -92.5 -116.5t-105.5 -34.5q-31 0 -65.5 19t-60 42.5t-57.5 42.5t-59 19 q-59 0 -94 -105z" />
<glyph unicode="&#xd2;" horiz-adv-x="1449" d="M74 725q0 159 45 296.5t127.5 238t205.5 158t271 57.5q197 0 347 -99t228 -268.5t78 -382.5q0 -159 -46 -298t-129 -241t-206.5 -160.5t-271.5 -58.5t-271 58.5t-205 160.5t-127.5 241t-45.5 298zM297 725q0 -158 49 -285.5t147 -205.5t230 -78q134 0 232 78t146 205.5 t48 285.5q0 161 -48 286.5t-146 200t-232 74.5q-133 0 -230.5 -74t-146.5 -200t-49 -287zM418 1815h209l319 -281h-186z" />
<glyph unicode="&#xd3;" horiz-adv-x="1449" d="M74 725q0 159 45 296.5t127.5 238t205.5 158t271 57.5q197 0 347 -99t228 -268.5t78 -382.5q0 -159 -46 -298t-129 -241t-206.5 -160.5t-271.5 -58.5t-271 58.5t-205 160.5t-127.5 241t-45.5 298zM297 725q0 -158 49 -285.5t147 -205.5t230 -78q134 0 232 78t146 205.5 t48 285.5q0 161 -48 286.5t-146 200t-232 74.5q-133 0 -230.5 -74t-146.5 -200t-49 -287zM512 1534l299 281h209l-340 -281h-168z" />
<glyph unicode="&#xd4;" horiz-adv-x="1449" d="M74 725q0 159 45 296.5t127.5 238t205.5 158t271 57.5q197 0 347 -99t228 -268.5t78 -382.5q0 -159 -46 -298t-129 -241t-206.5 -160.5t-271.5 -58.5t-271 58.5t-205 160.5t-127.5 241t-45.5 298zM297 725q0 -158 49 -285.5t147 -205.5t230 -78q134 0 232 78t146 205.5 t48 285.5q0 161 -48 286.5t-146 200t-232 74.5q-133 0 -230.5 -74t-146.5 -200t-49 -287zM373 1536l272 279h162l268 -279h-188l-162 178l-168 -178h-184z" />
<glyph unicode="&#xd5;" horiz-adv-x="1449" d="M74 725q0 159 45 296.5t127.5 238t205.5 158t271 57.5q197 0 347 -99t228 -268.5t78 -382.5q0 -159 -46 -298t-129 -241t-206.5 -160.5t-271.5 -58.5t-271 58.5t-205 160.5t-127.5 241t-45.5 298zM297 725q0 -158 49 -285.5t147 -205.5t230 -78q134 0 232 78t146 205.5 t48 285.5q0 161 -48 286.5t-146 200t-232 74.5q-133 0 -230.5 -74t-146.5 -200t-49 -287zM418 1640q39 71 82 102.5t106 31.5q32 0 67 -18t60.5 -39.5t57.5 -39.5t59 -18q34 0 58 26.5t44 88.5l86 -99q-48 -82 -92.5 -116.5t-105.5 -34.5q-31 0 -65.5 19t-60 42.5 t-57.5 42.5t-59 19q-59 0 -94 -105z" />
<glyph unicode="&#xd6;" horiz-adv-x="1449" d="M74 725q0 159 45 296.5t127.5 238t205.5 158t271 57.5q197 0 347 -99t228 -268.5t78 -382.5q0 -159 -46 -298t-129 -241t-206.5 -160.5t-271.5 -58.5t-271 58.5t-205 160.5t-127.5 241t-45.5 298zM297 725q0 -158 49 -285.5t147 -205.5t230 -78q134 0 232 78t146 205.5 t48 285.5q0 161 -48 286.5t-146 200t-232 74.5q-133 0 -230.5 -74t-146.5 -200t-49 -287zM422 1573v194h182v-194h-182zM850 1573v194h182v-194h-182z" />
<glyph unicode="&#xd8;" horiz-adv-x="1449" d="M51 0l170 215q-151 205 -151 510q0 159 45 296.5t127.5 238t205.5 158t271 57.5q222 0 389 -134l76 97h211l-168 -215q145 -199 145 -498q0 -214 -77.5 -384.5t-227.5 -271t-348 -100.5q-223 0 -383 129l-76 -98h-209zM295 750q0 -223 72 -351l614 781q-106 106 -262 106 q-194 0 -309 -150.5t-115 -385.5zM465 258q104 -104 254 -104q132 0 230.5 79t148 207t49.5 285q0 172 -70 309z" />
<glyph unicode="&#xd9;" horiz-adv-x="1402" d="M123 578v860h215v-860q0 -95 18.5 -168t50.5 -119.5t79 -76t99.5 -41t116.5 -11.5t117 12t100 42t79 76.5t50.5 119t18.5 166.5v860h213v-860q0 -156 -45 -275t-125 -191t-183 -107.5t-227 -35.5t-226.5 35.5t-182 107.5t-124 191t-44.5 275zM377 1815h209l319 -281h-186 z" />
<glyph unicode="&#xda;" horiz-adv-x="1402" d="M123 578v860h215v-860q0 -95 18.5 -168t50.5 -119.5t79 -76t99.5 -41t116.5 -11.5t117 12t100 42t79 76.5t50.5 119t18.5 166.5v860h213v-860q0 -156 -45 -275t-125 -191t-183 -107.5t-227 -35.5t-226.5 35.5t-182 107.5t-124 191t-44.5 275zM514 1534l299 281h209 l-340 -281h-168z" />
<glyph unicode="&#xdb;" horiz-adv-x="1402" d="M123 578v860h215v-860q0 -95 18.5 -168t50.5 -119.5t79 -76t99.5 -41t116.5 -11.5t117 12t100 42t79 76.5t50.5 119t18.5 166.5v860h213v-860q0 -156 -45 -275t-125 -191t-183 -107.5t-227 -35.5t-226.5 35.5t-182 107.5t-124 191t-44.5 275zM348 1536l273 279h161 l269 -279h-189l-162 178l-168 -178h-184z" />
<glyph unicode="&#xdc;" horiz-adv-x="1402" d="M123 578v860h215v-860q0 -95 18.5 -168t50.5 -119.5t79 -76t99.5 -41t116.5 -11.5t117 12t100 42t79 76.5t50.5 119t18.5 166.5v860h213v-860q0 -156 -45 -275t-125 -191t-183 -107.5t-227 -35.5t-226.5 35.5t-182 107.5t-124 191t-44.5 275zM403 1573v194h183v-194h-183 zM831 1573v194h183v-194h-183z" />
<glyph unicode="&#xdd;" horiz-adv-x="1273" d="M-39 1438h262l418 -594l422 594h248l-568 -787v-651h-215v651zM469 1534l299 281h209l-340 -281h-168z" />
<glyph unicode="&#xde;" horiz-adv-x="1329" d="M127 0v1438h215v-209h463q114 0 205 -37t148.5 -102.5t87.5 -151t30 -184.5q0 -91 -31 -173.5t-88 -147t-146 -102.5t-198 -38h-471v-293h-215zM342 479h455q112 0 178.5 77t66.5 198q0 136 -63.5 215.5t-169.5 79.5h-467v-570z" />
<glyph unicode="&#xdf;" horiz-adv-x="1128" d="M127 0v1036q0 103 35.5 183.5t97.5 129.5t141 74t170 25q207 0 329 -99t122 -262q0 -141 -77.5 -230t-217.5 -95q157 -6 245.5 -108t88.5 -251q0 -196 -109.5 -302.5t-296.5 -106.5q-119 0 -200 26l37 168q53 -18 126 -18q111 0 169.5 61t58.5 183q0 121 -62 186.5 t-182 65.5h-84v176h72q102 0 160.5 57.5t58.5 161.5q0 101 -68.5 154t-171.5 53q-105 0 -172 -59.5t-67 -172.5v-1036h-203z" />
<glyph unicode="&#xe0;" horiz-adv-x="1058" d="M76 315q0 90 33.5 161t90.5 114t126.5 65.5t146.5 22.5q152 0 262 -41v55q0 102 -59 159.5t-166 57.5q-81 0 -158.5 -34.5t-134.5 -96.5l-90 144q86 73 191.5 113t213.5 40q117 0 207 -39t144.5 -122t54.5 -199v-715h-203v117q-45 -71 -131 -107.5t-182 -36.5 q-90 0 -167 37.5t-128 117t-51 187.5zM240 1444h221l262 -303h-170zM291 324q0 -94 53 -142.5t135 -48.5q76 0 149 39.5t107 106.5v210q-96 41 -219 41q-102 0 -163.5 -49t-61.5 -157z" />
<glyph unicode="&#xe1;" horiz-adv-x="1058" d="M76 315q0 90 33.5 161t90.5 114t126.5 65.5t146.5 22.5q152 0 262 -41v55q0 102 -59 159.5t-166 57.5q-81 0 -158.5 -34.5t-134.5 -96.5l-90 144q86 73 191.5 113t213.5 40q117 0 207 -39t144.5 -122t54.5 -199v-715h-203v117q-45 -71 -131 -107.5t-182 -36.5 q-90 0 -167 37.5t-128 117t-51 187.5zM291 324q0 -94 53 -142.5t135 -48.5q76 0 149 39.5t107 106.5v210q-96 41 -219 41q-102 0 -163.5 -49t-61.5 -157zM369 1141l260 303h221l-313 -303h-168z" />
<glyph unicode="&#xe2;" horiz-adv-x="1058" d="M76 315q0 90 33.5 161t90.5 114t126.5 65.5t146.5 22.5q152 0 262 -41v55q0 102 -59 159.5t-166 57.5q-81 0 -158.5 -34.5t-134.5 -96.5l-90 144q86 73 191.5 113t213.5 40q117 0 207 -39t144.5 -122t54.5 -199v-715h-203v117q-45 -71 -131 -107.5t-182 -36.5 q-90 0 -167 37.5t-128 117t-51 187.5zM199 1141l272 303h166l270 -303h-194l-160 186l-166 -186h-188zM291 324q0 -94 53 -142.5t135 -48.5q76 0 149 39.5t107 106.5v210q-96 41 -219 41q-102 0 -163.5 -49t-61.5 -157z" />
<glyph unicode="&#xe3;" horiz-adv-x="1058" d="M76 315q0 90 33.5 161t90.5 114t126.5 65.5t146.5 22.5q152 0 262 -41v55q0 102 -59 159.5t-166 57.5q-81 0 -158.5 -34.5t-134.5 -96.5l-90 144q86 73 191.5 113t213.5 40q117 0 207 -39t144.5 -122t54.5 -199v-715h-203v117q-45 -71 -131 -107.5t-182 -36.5 q-90 0 -167 37.5t-128 117t-51 187.5zM221 1278q38 74 84 109.5t111 35.5q39 0 76.5 -15t62.5 -33t58 -33t65 -15q76 0 102 100l109 -96q-45 -90 -93 -128t-112 -38q-44 0 -129.5 49.5t-130.5 49.5q-75 0 -102 -88zM291 324q0 -94 53 -142.5t135 -48.5q76 0 149 39.5 t107 106.5v210q-96 41 -219 41q-102 0 -163.5 -49t-61.5 -157z" />
<glyph unicode="&#xe4;" horiz-adv-x="1058" d="M76 315q0 90 33.5 161t90.5 114t126.5 65.5t146.5 22.5q152 0 262 -41v55q0 102 -59 159.5t-166 57.5q-81 0 -158.5 -34.5t-134.5 -96.5l-90 144q86 73 191.5 113t213.5 40q117 0 207 -39t144.5 -122t54.5 -199v-715h-203v117q-45 -71 -131 -107.5t-182 -36.5 q-90 0 -167 37.5t-128 117t-51 187.5zM240 1184v196h176v-196h-176zM291 324q0 -94 53 -142.5t135 -48.5q76 0 149 39.5t107 106.5v210q-96 41 -219 41q-102 0 -163.5 -49t-61.5 -157zM655 1184v196h176v-196h-176z" />
<glyph unicode="&#xe5;" horiz-adv-x="1058" d="M76 315q0 90 33.5 161t90.5 114t126.5 65.5t146.5 22.5q152 0 262 -41v55q0 102 -59 159.5t-166 57.5q-81 0 -158.5 -34.5t-134.5 -96.5l-90 144q86 73 191.5 113t213.5 40q117 0 207 -39t144.5 -122t54.5 -199v-715h-203v117q-45 -71 -131 -107.5t-182 -36.5 q-90 0 -167 37.5t-128 117t-51 187.5zM291 324q0 -94 53 -142.5t135 -48.5q76 0 149 39.5t107 106.5v210q-96 41 -219 41q-102 0 -163.5 -49t-61.5 -157zM299 1325q0 95 71 158t175 63q101 0 172 -63.5t71 -157.5q0 -95 -70.5 -154t-172.5 -59q-105 0 -175.5 59t-70.5 154z M430 1325q0 -46 33.5 -76t81.5 -30q50 0 83.5 29.5t33.5 76.5q0 49 -32.5 75.5t-84.5 26.5q-50 0 -82.5 -26.5t-32.5 -75.5z" />
<glyph unicode="&#xe6;" horiz-adv-x="1675" d="M70 315q0 72 22 133t60 103t89 71.5t107.5 43.5t116.5 14q144 0 260 -43v55q0 110 -61 163.5t-162 53.5q-81 0 -158.5 -34.5t-132.5 -96.5l-90 144q85 74 191 113.5t212 39.5q148 0 225.5 -55.5t112.5 -151.5q50 82 150 144.5t207 62.5q96 0 177.5 -40.5t138.5 -114 t81.5 -186t7.5 -247.5h-692q4 -158 90 -251t209 -93q76 0 141 33.5t107 97.5l112 -131q-142 -176 -366 -176q-75 0 -138 17.5t-109.5 49t-79.5 65.5t-62 77q-67 -89 -176.5 -147t-251.5 -58q-62 0 -122 23t-108.5 65.5t-78 109t-29.5 146.5zM285 324q0 -93 52.5 -142 t133.5 -49q89 0 170.5 47t118.5 117q-33 111 -33 195q-96 38 -219 38q-102 0 -162.5 -49t-60.5 -157zM944 641h481q0 122 -61.5 194t-151.5 72q-98 0 -173 -73.5t-95 -192.5z" />
<glyph unicode="&#xe7;" horiz-adv-x="983" d="M82 518q0 156 65 284t180 200.5t255 72.5q223 0 358 -168l-123 -127q-50 58 -104 86.5t-125 28.5q-126 0 -207.5 -106t-81.5 -273q0 -164 82 -266.5t211 -102.5q142 0 235 136l121 -129q-127 -170 -327 -185l-39 -57q107 -3 165 -48.5t58 -125.5q0 -82 -81 -135.5 t-204 -53.5q-67 0 -131 17.5t-106 46.5l61 96q73 -41 160 -41q65 0 103 20t38 56q0 80 -160 80q-23 0 -73 -4l94 153q-188 28 -306 177.5t-118 367.5z" />
<glyph unicode="&#xe8;" horiz-adv-x="1062" d="M82 518q0 156 62.5 283t176 200.5t257.5 73.5q97 0 179.5 -40.5t141 -114t84.5 -186t10 -247.5h-692q3 -158 88.5 -251t208.5 -93q76 0 142 33.5t106 97.5l112 -131q-139 -176 -374 -176q-219 0 -360.5 154t-141.5 397zM270 1444h222l262 -303h-170zM309 641h486 q-1 123 -64 194.5t-158 71.5q-96 0 -170 -73.5t-94 -192.5z" />
<glyph unicode="&#xe9;" horiz-adv-x="1062" d="M82 518q0 156 62.5 283t176 200.5t257.5 73.5q97 0 179.5 -40.5t141 -114t84.5 -186t10 -247.5h-692q3 -158 88.5 -251t208.5 -93q76 0 142 33.5t106 97.5l112 -131q-139 -176 -374 -176q-219 0 -360.5 154t-141.5 397zM309 641h486q-1 123 -64 194.5t-158 71.5 q-96 0 -170 -73.5t-94 -192.5zM393 1141l260 303h221l-313 -303h-168z" />
<glyph unicode="&#xea;" horiz-adv-x="1062" d="M82 518q0 156 62.5 283t176 200.5t257.5 73.5q97 0 179.5 -40.5t141 -114t84.5 -186t10 -247.5h-692q3 -158 88.5 -251t208.5 -93q76 0 142 33.5t106 97.5l112 -131q-139 -176 -374 -176q-219 0 -360.5 154t-141.5 397zM229 1141l273 303h166l270 -303h-195l-159 186 l-166 -186h-189zM309 641h486q-1 123 -64 194.5t-158 71.5q-96 0 -170 -73.5t-94 -192.5z" />
<glyph unicode="&#xeb;" horiz-adv-x="1062" d="M82 518q0 156 62.5 283t176 200.5t257.5 73.5q97 0 179.5 -40.5t141 -114t84.5 -186t10 -247.5h-692q3 -158 88.5 -251t208.5 -93q76 0 142 33.5t106 97.5l112 -131q-139 -176 -374 -176q-219 0 -360.5 154t-141.5 397zM276 1184v196h177v-196h-177zM309 641h486 q-1 123 -64 194.5t-158 71.5q-96 0 -170 -73.5t-94 -192.5zM692 1184v196h176v-196h-176z" />
<glyph unicode="&#xec;" horiz-adv-x="462" d="M-100 1444h221l262 -303h-170zM127 0v1042h209v-1042h-209z" />
<glyph unicode="&#xed;" horiz-adv-x="462" d="M86 1141l260 303h221l-313 -303h-168zM127 0v1042h209v-1042h-209z" />
<glyph unicode="&#xee;" horiz-adv-x="462" d="M-121 1141l273 303h165l271 -303h-195l-160 186l-165 -186h-189zM127 0v1042h209v-1042h-209z" />
<glyph unicode="&#xef;" horiz-adv-x="462" d="M-61 1184v196h176v-196h-176zM127 0v1042h209v-1042h-209zM354 1184v196h176v-196h-176z" />
<glyph unicode="&#xf0;" horiz-adv-x="1230" d="M82 471q0 202 122 332.5t341 130.5q126 0 240 -50t192 -143q-3 276 -139 428l-119 -122l-96 86l112 114q-99 58 -219 58q-183 0 -319 -107l-95 148q175 129 422 129q179 0 328 -97l96 101l96 -86l-90 -93q107 -106 166.5 -258t59.5 -331q0 -333 -162 -538.5t-418 -205.5 q-236 0 -377 141t-141 363zM299 461q0 -135 79.5 -224.5t221.5 -89.5q138 0 235.5 112t120.5 316q-172 195 -383 195q-136 0 -205 -82t-69 -227z" />
<glyph unicode="&#xf1;" horiz-adv-x="1079" d="M127 0v1042h203v-88q137 121 311 121q155 0 242.5 -97.5t87.5 -303.5v-674h-203v653q0 238 -186 238q-132 0 -252 -117v-774h-203zM225 1278q38 74 84 109.5t111 35.5q39 0 76.5 -15t62.5 -33t58 -33t65 -15q76 0 102 100l109 -96q-45 -90 -93 -128t-112 -38 q-44 0 -129.5 49.5t-130.5 49.5q-75 0 -102 -88z" />
<glyph unicode="&#xf2;" horiz-adv-x="1134" d="M82 522q0 243 139 398t346 155q208 0 347 -155t139 -398q0 -240 -139.5 -397.5t-346.5 -157.5q-135 0 -245.5 71t-175 198.5t-64.5 285.5zM299 518q0 -167 70.5 -269t197.5 -102q128 0 198.5 102t70.5 269q0 171 -70.5 274t-198.5 103q-127 0 -197.5 -103t-70.5 -274z M307 1444h221l263 -303h-170z" />
<glyph unicode="&#xf3;" horiz-adv-x="1134" d="M82 522q0 243 139 398t346 155q208 0 347 -155t139 -398q0 -240 -139.5 -397.5t-346.5 -157.5q-135 0 -245.5 71t-175 198.5t-64.5 285.5zM299 518q0 -167 70.5 -269t197.5 -102q128 0 198.5 102t70.5 269q0 171 -70.5 274t-198.5 103q-127 0 -197.5 -103t-70.5 -274z M393 1141l260 303h221l-313 -303h-168z" />
<glyph unicode="&#xf4;" horiz-adv-x="1134" d="M82 522q0 243 139 398t346 155q208 0 347 -155t139 -398q0 -240 -139.5 -397.5t-346.5 -157.5q-135 0 -245.5 71t-175 198.5t-64.5 285.5zM217 1141l272 303h166l271 -303h-195l-160 186l-165 -186h-189zM299 518q0 -167 70.5 -269t197.5 -102q128 0 198.5 102t70.5 269 q0 171 -70.5 274t-198.5 103q-127 0 -197.5 -103t-70.5 -274z" />
<glyph unicode="&#xf5;" horiz-adv-x="1134" d="M82 522q0 243 139 398t346 155q208 0 347 -155t139 -398q0 -240 -139.5 -397.5t-346.5 -157.5q-135 0 -245.5 71t-175 198.5t-64.5 285.5zM244 1278q38 74 83.5 109.5t110.5 35.5q39 0 76.5 -15t62.5 -33t58 -33t65 -15q77 0 103 100l108 -96q-45 -90 -92.5 -128 t-111.5 -38q-44 0 -130 49.5t-131 49.5q-75 0 -102 -88zM299 518q0 -167 70.5 -269t197.5 -102q128 0 198.5 102t70.5 269q0 171 -70.5 274t-198.5 103q-127 0 -197.5 -103t-70.5 -274z" />
<glyph unicode="&#xf6;" horiz-adv-x="1134" d="M82 522q0 243 139 398t346 155q208 0 347 -155t139 -398q0 -240 -139.5 -397.5t-346.5 -157.5q-135 0 -245.5 71t-175 198.5t-64.5 285.5zM270 1184v196h176v-196h-176zM299 518q0 -167 70.5 -269t197.5 -102q128 0 198.5 102t70.5 269q0 171 -70.5 274t-198.5 103 q-127 0 -197.5 -103t-70.5 -274zM686 1184v196h176v-196h-176z" />
<glyph unicode="&#xf7;" d="M41 532v173h1077v-173h-1077zM446 72v245h259v-245h-259zM446 901v246h259v-246h-259z" />
<glyph unicode="&#xf8;" horiz-adv-x="1134" d="M31 0q25 28 76 86.5t77 87.5q-100 149 -100 348q0 243 139 398t346 155q164 0 295 -112q13 12 36.5 38.5t35.5 38.5h168q-54 -58 -154 -170q105 -146 105 -348q0 -240 -139.5 -396.5t-346.5 -156.5q-172 0 -299 115q-12 -14 -36 -41.5t-37 -42.5h-166zM295 512 q0 -47 8 -86q11 -56 25 -88q206 240 411 477q-75 78 -170 78q-122 0 -197 -100t-77 -261v-20zM395 227q51 -54 111 -71q34 -9 72 -9q120 3 193 107t73 264q0 102 -37 187q-76 -90 -219 -254.5t-193 -223.5z" />
<glyph unicode="&#xf9;" horiz-adv-x="1093" d="M123 371v671h203v-653q0 -235 174 -235q148 0 262 114v774h203v-1042h-203v88q-134 -119 -309 -119q-156 0 -243 97t-87 305zM266 1444h221l263 -303h-170z" />
<glyph unicode="&#xfa;" horiz-adv-x="1093" d="M123 371v671h203v-653q0 -235 174 -235q148 0 262 114v774h203v-1042h-203v88q-134 -119 -309 -119q-156 0 -243 97t-87 305zM387 1141l260 303h221l-313 -303h-168z" />
<glyph unicode="&#xfb;" horiz-adv-x="1093" d="M123 371v671h203v-653q0 -235 174 -235q148 0 262 114v774h203v-1042h-203v88q-134 -119 -309 -119q-156 0 -243 97t-87 305zM201 1141l272 303h166l270 -303h-194l-160 186l-166 -186h-188z" />
<glyph unicode="&#xfc;" horiz-adv-x="1093" d="M123 371v671h203v-653q0 -235 174 -235q148 0 262 114v774h203v-1042h-203v88q-134 -119 -309 -119q-156 0 -243 97t-87 305zM254 1184v196h176v-196h-176zM670 1184v196h176v-196h-176z" />
<glyph unicode="&#xfd;" horiz-adv-x="952" d="M-37 -367l55 183q67 -39 154 -39q69 0 119 41.5t80 152.5l-387 1071h223l268 -831l273 831h219l-387 -1065q-28 -74 -51.5 -126.5t-58 -106.5t-71.5 -86.5t-88.5 -53t-113.5 -20.5q-130 0 -234 49zM350 1141l260 303h221l-313 -303h-168z" />
<glyph unicode="&#xfe;" horiz-adv-x="1122" d="M127 -395v1833l203 59v-553q40 57 121 94t159 37q124 0 222.5 -74.5t152 -201t53.5 -281.5t-55 -280.5t-153.5 -197t-221.5 -71.5q-89 0 -165 31t-113 88v-483h-203zM330 279q39 -61 99.5 -95t125.5 -34q129 0 197.5 100t68.5 266q0 167 -69 273t-195 106 q-60 0 -124.5 -38t-102.5 -95v-483z" />
<glyph unicode="&#xff;" horiz-adv-x="952" d="M-37 -367l55 183q67 -39 154 -39q69 0 119 41.5t80 152.5l-387 1071h223l268 -831l273 831h219l-387 -1065q-28 -74 -51.5 -126.5t-58 -106.5t-71.5 -86.5t-88.5 -53t-113.5 -20.5q-130 0 -234 49zM182 1184v196h176v-196h-176zM598 1184v196h176v-196h-176z" />
<glyph unicode="&#x131;" horiz-adv-x="462" d="M127 0v1042h209v-1042h-209z" />
<glyph unicode="&#x152;" horiz-adv-x="2076" d="M59 725q0 213 77.5 382.5t226 268.5t344.5 99q114 0 223 -37h1108v-183h-860q148 -158 176 -407h364v-172h-360q-5 -151 -54 -280t-137 -218h871v-178h-1125q-104 -33 -206 -33q-196 0 -344.5 101t-226 272t-77.5 385zM283 725q0 -158 48.5 -285.5t146 -205.5t229.5 -78 q134 0 232.5 78t147 205.5t48.5 285.5q0 247 -113.5 404t-314.5 157q-133 0 -230 -74t-145.5 -200t-48.5 -287z" />
<glyph unicode="&#x153;" horiz-adv-x="1773" d="M74 522q0 161 65 288t176 196t246 69q121 0 214.5 -60.5t152.5 -166.5q59 105 157.5 166t225.5 61q96 0 177.5 -40.5t138.5 -114t81.5 -186t7.5 -247.5h-692q4 -158 90 -251t209 -93q76 0 141 33.5t107 97.5l112 -131q-142 -176 -366 -176q-132 0 -232.5 60t-160.5 168 q-58 -107 -154 -167.5t-217 -60.5q-205 0 -342 157.5t-137 397.5zM291 518q0 -167 71 -269t199 -102q126 0 197 102t71 269q0 171 -70 274t-198 103t-199 -103t-71 -274zM1036 641h482q0 122 -61.5 194t-151.5 72q-98 0 -173.5 -73.5t-95.5 -192.5z" />
<glyph unicode="&#x178;" horiz-adv-x="1273" d="M-39 1438h262l418 -594l422 594h248l-568 -787v-651h-215v651zM334 1573v194h182v-194h-182zM762 1573v194h182v-194h-182z" />
<glyph unicode="&#x192;" horiz-adv-x="626" d="M-217 -346q8 25 24.5 80.5t26.5 83.5q77 -41 160 -41q176 0 176 243v848h-115v174h115q0 47 2 70q5 101 36 174.5t80.5 113.5t106.5 58.5t123 18.5h23q129 -3 223 -54q-8 -19 -31.5 -74.5t-36.5 -84.5q-67 45 -151 45q-164 0 -170 -211q-2 -16 -2 -56h272v-174h-272v-718 q0 -77 -11 -185q-6 -92 -34.5 -162t-74.5 -112t-103 -63t-123 -21q-150 0 -244 47z" />
<glyph unicode="&#x2c6;" horiz-adv-x="1341" d="M356 1141l273 303h166l270 -303h-195l-159 186l-166 -186h-189z" />
<glyph unicode="&#x2c7;" horiz-adv-x="1320" d="M358 1444h193l160 -187l168 187h186l-272 -303h-166z" />
<glyph unicode="&#x2d8;" horiz-adv-x="774" d="M117 1444h135q0 -76 36 -111t97 -35q59 0 95 35.5t36 110.5h135q0 -129 -76 -206t-192 -77q-114 0 -190 77t-76 206z" />
<glyph unicode="&#x2d9;" horiz-adv-x="501" d="M162 1184v207h205v-207h-205z" />
<glyph unicode="&#x2da;" horiz-adv-x="1366" d="M473 1325q0 95 71 158t175 63q101 0 172.5 -63.5t71.5 -157.5q0 -95 -71 -154t-173 -59q-105 0 -175.5 59t-70.5 154zM604 1325q0 -46 33.5 -76t81.5 -30q50 0 83.5 29.5t33.5 76.5q0 49 -32.5 75.5t-84.5 26.5q-50 0 -82.5 -26.5t-32.5 -75.5z" />
<glyph unicode="&#x2db;" horiz-adv-x="1280" d="M549 -252q0 90 73 158t185 94h123q-232 -87 -232 -219q0 -92 121 -92q111 0 170 71l78 -112q-48 -40 -119 -67t-141 -27q-126 0 -192 51t-66 143z" />
<glyph unicode="&#x2dc;" horiz-adv-x="1425" d="M434 1278q38 74 84 109.5t111 35.5q39 0 76.5 -15t62.5 -33t58 -33t65 -15q76 0 102 100l109 -96q-45 -90 -93 -128t-112 -38q-44 0 -129.5 49.5t-130.5 49.5q-75 0 -102 -88z" />
<glyph unicode="&#x2dd;" horiz-adv-x="1263" d="M313 1159l197 285h186l-250 -285h-133zM633 1159l196 285h189l-248 -285h-137z" />
<glyph unicode="&#x3c0;" horiz-adv-x="1196" d="M41 866v176h1114v-176h-172v-866h-207v866h-362v-635q0 -180 -78 -278l-178 80q49 65 49 196v637h-166z" />
<glyph unicode="&#x401;" horiz-adv-x="1191" d="M137 0v1438h1014v-185h-797v-405h480v-172h-480v-498h797v-178h-1014zM373 1573v194h182v-194h-182zM801 1573v194h182v-194h-182z" />
<glyph unicode="&#x402;" horiz-adv-x="1433" d="M-10 1249v189h1186v-189h-486v-331q135 120 311 120q78 0 136 -25.5t104.5 -87t70 -174t23.5 -276.5q0 -179 -32.5 -330t-87.5 -254.5t-118 -172.5t-134 -111l-115 153q53 31 99 84.5t87.5 137t65.5 209t24 278.5q0 97 -9 167t-24 111.5t-39.5 66t-49.5 32.5t-60 8 q-135 0 -252 -117v-737h-215v1249h-485z" />
<glyph unicode="&#x403;" horiz-adv-x="1056" d="M137 0v1438h932v-191h-717v-1247h-215zM440 1534l297 281h209l-340 -281h-166z" />
<glyph unicode="&#x404;" horiz-adv-x="1253" d="M74 725q0 214 78.5 383.5t228.5 268t346 98.5q159 0 287 -64t209 -188l-148 -133q-118 190 -340 190q-182 0 -292.5 -116t-137.5 -318h578v-172h-582q5 -111 35 -204.5t83 -163.5t133.5 -109t180.5 -39q237 0 352 219l152 -135q-82 -136 -213 -205.5t-297 -69.5 q-150 0 -273.5 58t-206.5 159.5t-128 240.5t-45 300z" />
<glyph unicode="&#x405;" horiz-adv-x="1280" d="M59 193l121 145q86 -93 209 -142t258 -49q145 0 238.5 61t93.5 183q0 103 -84.5 160t-282.5 88q-252 40 -383 139t-131 279q0 129 70 225.5t187.5 144.5t265.5 48q338 0 555 -199l-127 -148q-168 162 -435 162q-129 0 -213 -54.5t-84 -156.5q0 -101 75.5 -158t256.5 -81 q283 -38 417 -142t134 -282q0 -111 -43.5 -197.5t-120.5 -141t-177 -82.5t-218 -28q-372 0 -582 226z" />
<glyph unicode="&#x406;" horiz-adv-x="491" d="M137 0v1438h217v-1438h-217z" />
<glyph unicode="&#x407;" horiz-adv-x="491" d="M-59 1573v194h182v-194h-182zM137 0v1438h217v-1438h-217zM369 1573v194h182v-194h-182z" />
<glyph unicode="&#x408;" horiz-adv-x="1142" d="M-2 221l141 154q52 -90 139 -146.5t189 -56.5q167 0 253.5 100.5t86.5 286.5v879h215l-2 -883q0 -131 -32.5 -237.5t-98 -185.5t-170 -122t-242.5 -43q-312 0 -479 254z" />
<glyph unicode="&#x409;" horiz-adv-x="2160" d="M0 0v215q86 0 153.5 104t109 280t63.5 389t24 450h834v-586h461q217 0 337.5 -108.5t120.5 -325.5q0 -207 -121.5 -312.5t-336.5 -105.5h-678v1249h-418q-4 -206 -24.5 -384.5t-62.5 -340t-103.5 -276t-153 -181.5t-205.5 -67zM1184 176h434q115 0 186.5 62.5t71.5 181.5 q0 123 -71 191.5t-187 68.5h-434v-504z" />
<glyph unicode="&#x40a;" horiz-adv-x="2244" d="M137 0v1438h217v-578h693v578h215v-580h467q216 0 337 -111t121 -329q0 -207 -121.5 -312.5t-336.5 -105.5h-682v662h-693v-662h-217zM1262 176h440q115 0 186.5 62.5t71.5 181.5q0 123 -71 189.5t-187 66.5h-440v-500z" />
<glyph unicode="&#x40b;" horiz-adv-x="1435" d="M-10 1249v189h1186v-189h-486v-321q137 121 311 121q155 0 241.5 -97.5t86.5 -304.5v-647h-205v627q0 129 -48 183t-134 54q-136 0 -252 -116v-748h-215v1249h-485z" />
<glyph unicode="&#x40c;" horiz-adv-x="1228" d="M127 0v1438h215v-582h182q38 0 73 32t66 83.5t65 113.5t78.5 124t96.5 113.5t128 83.5t165 32v-203q-67 0 -121 -40t-92.5 -103t-72.5 -129.5t-79 -131.5t-94 -96l541 -735h-274l-486 666h-176v-666h-215zM479 1534l299 281h209l-342 -281h-166z" />
<glyph unicode="&#x40e;" horiz-adv-x="1236" d="M12 -78l74 197q79 -43 186 -43q181 0 242 180l-496 1184h238l389 -955l373 955h229l-475 -1168q-39 -96 -78.5 -163t-95.5 -124.5t-131 -86.5t-170 -29q-157 0 -285 53zM377 1794h129q5 -143 137 -143q134 0 137 143h129q0 -126 -75 -198t-191 -72q-114 0 -190 72.5 t-76 197.5z" />
<glyph unicode="&#x40f;" horiz-adv-x="1400" d="M137 0v1438h217v-1254h693v1254h215v-1438h-443l-53 -387h-129l-53 387h-447z" />
<glyph unicode="&#x410;" horiz-adv-x="1249" d="M-41 0l524 1438h285l522 -1438h-229l-139 401h-596l-140 -401h-227zM387 578h473l-233 677h-2z" />
<glyph unicode="&#x411;" horiz-adv-x="1337" d="M137 0v1438h983v-183h-766v-413h467q216 0 337.5 -106.5t121.5 -321.5q0 -207 -121.5 -310.5t-337.5 -103.5h-684zM354 176h439q115 0 187.5 63t72.5 181q0 123 -72 191.5t-188 68.5h-439v-504z" />
<glyph unicode="&#x412;" horiz-adv-x="1345" d="M137 0v1438h680q208 0 319 -96.5t111 -245.5q0 -66 -22.5 -123.5t-66.5 -103.5t-115.5 -73.5t-163.5 -29.5q101 -2 180.5 -33t127.5 -82.5t72.5 -116t24.5 -137.5q0 -129 -63.5 -221t-161.5 -134t-217 -42h-705zM354 176h453q109 0 179.5 70t70.5 174q0 110 -71 185 t-179 75h-453v-504zM354 842h441q102 0 166.5 66t64.5 149q0 92 -59 146t-172 54h-441v-415z" />
<glyph unicode="&#x413;" horiz-adv-x="1056" d="M137 0v1438h934v-189h-717v-1249h-217z" />
<glyph unicode="&#x414;" horiz-adv-x="1599" d="M-6 180h258q164 587 250 1258h827v-1258h260l-51 -524h-174v344h-1143v-344h-176zM473 180h639v1067h-428q-54 -486 -211 -1067z" />
<glyph unicode="&#x415;" horiz-adv-x="1191" d="M137 0v1438h1014v-185h-797v-405h480v-172h-480v-498h797v-178h-1014z" />
<glyph unicode="&#x416;" horiz-adv-x="1898" d="M-49 0l541 735q-49 31 -94 96t-79 131.5t-72.5 129.5t-92.5 103t-121 40v203q89 0 165 -32t128 -83.5t96 -113.5t78.5 -124t65.5 -113.5t66 -83.5t73 -32h137v582h215v-582h137q38 0 73 32t66 83.5t65 113.5t78.5 124t96.5 113.5t128 83.5t165 32v-203q-67 0 -121 -40 t-92.5 -103t-72.5 -129.5t-79 -131.5t-94 -96l541 -735h-275l-485 666h-131v-666h-215v666h-131l-486 -666h-274z" />
<glyph unicode="&#x417;" horiz-adv-x="1230" d="M61 158l107 149q165 -162 428 -162q137 0 225 63.5t88 178.5q0 69 -19.5 117t-67 84.5t-131.5 53.5t-210 17v156q121 0 205 20.5t127.5 58.5t61.5 81.5t18 99.5q0 107 -80.5 164t-212.5 57q-257 0 -426 -163l-108 149q112 98 242.5 145.5t299.5 47.5q233 0 369.5 -98 t136.5 -285q0 -134 -91.5 -229t-264.5 -120q191 -29 283 -119t92 -251q0 -130 -73 -223.5t-193.5 -138t-272.5 -44.5q-165 0 -293.5 46t-239.5 145z" />
<glyph unicode="&#x418;" horiz-adv-x="1409" d="M137 0v1438h215v-1102l649 1102h279v-1438h-213v1165l-684 -1165h-246z" />
<glyph unicode="&#x419;" horiz-adv-x="1417" d="M137 0v1438h215v-1102l649 1102h279v-1438h-213v1165l-684 -1165h-246zM453 1794h129q5 -143 137 -143q134 0 137 143h129q0 -126 -75 -198t-191 -72q-114 0 -190 72.5t-76 197.5z" />
<glyph unicode="&#x41a;" horiz-adv-x="1241" d="M137 0v1438h217v-582h181q38 0 73.5 32t66.5 83.5t65.5 113.5t78.5 124t96 113.5t128 83.5t165 32v-203q-57 0 -105 -29t-80 -74t-65.5 -103t-60.5 -112t-66 -104.5t-81 -77.5l538 -735h-274l-484 666h-176v-666h-217z" />
<glyph unicode="&#x41b;" horiz-adv-x="1331" d="M0 0v215q86 0 153.5 104t109 280t63.5 389t24 450h844v-1438h-217v1249h-428q-4 -206 -24.5 -384.5t-62.5 -340t-103.5 -276t-153 -181.5t-205.5 -67z" />
<glyph unicode="&#x41c;" horiz-adv-x="1736" d="M137 0v1438h318l417 -1082l416 1082h309v-1438h-211v1165l-458 -1165h-125l-453 1165v-1165h-213z" />
<glyph unicode="&#x41d;" horiz-adv-x="1400" d="M137 0v1438h217v-578h693v578h215v-1438h-215v662h-693v-662h-217z" />
<glyph unicode="&#x41e;" horiz-adv-x="1449" d="M74 725q0 159 45 296.5t127.5 238t205.5 158t271 57.5q197 0 347 -99t228 -268.5t78 -382.5q0 -159 -46 -298t-129 -241t-206.5 -160.5t-271.5 -58.5t-271 58.5t-205 160.5t-127.5 241t-45.5 298zM297 725q0 -158 49 -285.5t147 -205.5t230 -78q134 0 232 78t146 205.5 t48 285.5q0 161 -48 286.5t-146 200t-232 74.5q-133 0 -230.5 -74t-146.5 -200t-49 -287z" />
<glyph unicode="&#x41f;" horiz-adv-x="1400" d="M137 0v1438h1125v-1438h-215v1249h-693v-1249h-217z" />
<glyph unicode="&#x420;" horiz-adv-x="1341" d="M137 0v1438h678q114 0 205 -37.5t148.5 -103t87.5 -150.5t30 -184q0 -91 -30.5 -173.5t-87.5 -147t-146.5 -102.5t-198.5 -38h-469v-502h-217zM354 686h453q112 0 179 78t67 199q0 135 -63.5 213.5t-170.5 78.5h-465v-569z" />
<glyph unicode="&#x421;" horiz-adv-x="1251" d="M74 725q0 215 78.5 384.5t228.5 267.5t346 98q159 0 287 -64t209 -188l-148 -133q-115 192 -340 192q-211 0 -324.5 -152t-113.5 -405q0 -165 48.5 -291t148.5 -201t241 -75q235 0 350 219l152 -135q-82 -136 -213 -205.5t-297 -69.5q-150 0 -273.5 58t-206.5 159.5 t-128 240.5t-45 300z" />
<glyph unicode="&#x422;" horiz-adv-x="1165" d="M-10 1249v189h1186v-189h-486v-1249h-215v1249h-485z" />
<glyph unicode="&#x423;" horiz-adv-x="1236" d="M12 -78l74 197q79 -43 186 -43q181 0 242 180l-496 1184h238l389 -955l373 955h229l-475 -1168q-39 -96 -78.5 -163t-95.5 -124.5t-131 -86.5t-170 -29q-157 0 -285 53z" />
<glyph unicode="&#x424;" horiz-adv-x="1525" d="M43 719q0 141 79.5 255t219 182.5t315.5 80.5v201h215v-201q175 -13 313.5 -81t218 -182t79.5 -255q0 -137 -79 -250t-218 -181.5t-314 -80.5v-207h-215v207q-176 12 -315.5 80t-219 181t-79.5 251zM254 719q0 -143 108 -237t295 -109v696q-188 -15 -295.5 -109 t-107.5 -241zM872 375q183 15 293.5 109.5t110.5 234.5q0 144 -110 238.5t-294 111.5v-694z" />
<glyph unicode="&#x425;" horiz-adv-x="1333" d="M-6 0l545 729l-527 709h254l402 -537l401 537h250l-528 -707l546 -731h-254l-419 559l-420 -559h-250z" />
<glyph unicode="&#x426;" horiz-adv-x="1523" d="M137 0v1438h217v-1254h693v1254h215v-1258h262l-51 -526h-177v346h-1159z" />
<glyph unicode="&#x427;" horiz-adv-x="1343" d="M98 901v537h217v-512q0 -88 45.5 -146.5t113 -82t153.5 -23.5q104 0 206 34t156 87v643h215v-1438h-215v610q-76 -59 -183.5 -92t-221.5 -33q-96 0 -180.5 24t-154 72.5t-110.5 130.5t-41 189z" />
<glyph unicode="&#x428;" horiz-adv-x="2062" d="M137 0v1438h217v-1254h570v1254h215v-1254h569v1254h217v-1438h-1788z" />
<glyph unicode="&#x429;" horiz-adv-x="2185" d="M137 0v1438h217v-1254h570v1254h215v-1254h569v1254h217v-1258h260l-51 -526h-176v346h-1821z" />
<glyph unicode="&#x42a;" horiz-adv-x="1472" d="M0 1249v189h492v-580h466q215 0 337 -111.5t122 -328.5q0 -207 -122 -312.5t-337 -105.5h-684v1249h-274zM492 176h438q115 0 187.5 63t72.5 181q0 122 -72 189t-188 67h-438v-500z" />
<glyph unicode="&#x42b;" horiz-adv-x="1751" d="M137 0v1438h217v-580h467q215 0 337 -111.5t122 -328.5q0 -207 -122 -312.5t-337 -105.5h-684zM354 176h439q115 0 187.5 63t72.5 181q0 122 -72 189t-188 67h-439v-500zM1397 0v1438h217v-1438h-217z" />
<glyph unicode="&#x42c;" horiz-adv-x="1335" d="M137 0v1438h217v-580h467q215 0 337 -111.5t122 -328.5q0 -207 -122 -312.5t-337 -105.5h-684zM354 176h439q115 0 187.5 63t72.5 181q0 122 -72 189t-188 67h-439v-500z" />
<glyph unicode="&#x42d;" horiz-adv-x="1253" d="M14 242l152 135q115 -219 352 -219q198 0 310.5 143.5t121.5 372.5h-581v172h577q-27 201 -136 317.5t-292 116.5q-223 0 -340 -190l-149 133q81 124 208.5 188t286.5 64q196 0 346 -98.5t229 -268t79 -383.5q0 -216 -77.5 -387t-227.5 -271t-349 -100q-166 0 -296 69 t-214 206z" />
<glyph unicode="&#x42e;" horiz-adv-x="1822" d="M137 0v1438h217v-578h324q23 175 94 314t184 220t248 81q155 0 280.5 -100t195 -272.5t69.5 -381.5t-69.5 -381.5t-195 -272.5t-280.5 -100q-145 0 -264 92t-188 250t-78 353h-320v-662h-217zM877 719q0 -156 39.5 -284.5t115 -205.5t172.5 -77q99 0 175 77t115.5 205.5 t39.5 284.5q0 158 -39.5 286.5t-115.5 205.5t-175 77q-97 0 -172.5 -76.5t-115 -205.5t-39.5 -287z" />
<glyph unicode="&#x42f;" horiz-adv-x="1366" d="M35 0l479 573q-190 10 -305 124.5t-115 293.5q0 194 122 320.5t347 126.5h666v-1438h-217v551h-256l-449 -551h-272zM322 985q0 -120 69 -188t197 -68h424v526h-457q-104 0 -168.5 -70t-64.5 -200z" />
<glyph unicode="&#x430;" horiz-adv-x="1058" d="M76 315q0 90 33.5 161t90.5 114t126.5 65.5t146.5 22.5q152 0 262 -41v55q0 102 -59 159.5t-166 57.5q-81 0 -158.5 -34.5t-134.5 -96.5l-90 144q86 73 191.5 113t213.5 40q117 0 207 -39t144.5 -122t54.5 -199v-715h-203v117q-45 -71 -131 -107.5t-182 -36.5 q-90 0 -167 37.5t-128 117t-51 187.5zM291 324q0 -94 53 -142.5t135 -48.5q76 0 149 39.5t107 106.5v210q-96 41 -219 41q-102 0 -163.5 -49t-61.5 -157z" />
<glyph unicode="&#x431;" horiz-adv-x="1148" d="M82 686q0 291 152.5 485.5t414.5 214.5q173 10 293 113l90 -158q-78 -65 -166.5 -94t-203.5 -39q-181 -20 -278 -147t-103 -326q61 98 160 154.5t214 56.5q98 0 177.5 -38t130 -103t77.5 -150.5t27 -183.5q0 -221 -129 -362.5t-340 -141.5q-151 0 -268.5 91t-182.5 254.5 t-65 373.5zM295 571q18 -203 99.5 -314.5t203.5 -111.5q125 0 191.5 90t66.5 228q0 145 -59.5 226t-180.5 81q-179 0 -321 -199z" />
<glyph unicode="&#x432;" horiz-adv-x="1030" d="M127 0v1042h483q155 0 248.5 -73t93.5 -187q0 -100 -63 -163.5t-189 -73.5q131 -9 199 -75.5t68 -180.5q0 -132 -98 -210.5t-253 -78.5h-489zM334 158h239q86 0 138.5 35.5t52.5 109.5q0 84 -52.5 124t-138.5 40h-239v-309zM334 612h237q81 0 131 37t50 103 q0 129 -181 129h-237v-269z" />
<glyph unicode="&#x433;" horiz-adv-x="786" d="M127 0v1042h676v-176h-473v-866h-203z" />
<glyph unicode="&#x434;" horiz-adv-x="1280" d="M-6 176h213q111 415 143 866h699v-866h231l-47 -520h-170v344h-852v-344h-170zM418 176h424v690h-305q-27 -318 -119 -690z" />
<glyph unicode="&#x435;" horiz-adv-x="1062" d="M82 518q0 156 62.5 283t176 200.5t257.5 73.5q97 0 179.5 -40.5t141 -114t84.5 -186t10 -247.5h-692q3 -158 88.5 -251t208.5 -93q76 0 142 33.5t106 97.5l112 -131q-139 -176 -374 -176q-219 0 -360.5 154t-141.5 397zM309 641h486q-1 123 -64 194.5t-158 71.5 q-96 0 -170 -73.5t-94 -192.5z" />
<glyph unicode="&#x436;" horiz-adv-x="1554" d="M4 0l385 528q-45 26 -77 71.5t-50.5 89t-41 84.5t-63 66t-102.5 25v187q84 0 148.5 -23.5t103.5 -61t68 -83t49.5 -91t40 -83t48 -61t65.5 -23.5h96v417h207v-417h96q37 0 65 23.5t48 61t40.5 83t49.5 91t67.5 83t103 61t148.5 23.5v-187q-62 0 -102.5 -25t-63 -66 t-41 -84.5t-50.5 -89t-77 -71.5l385 -528h-241l-326 453h-102v-453h-207v453h-103l-325 -453h-242z" />
<glyph unicode="&#x437;" horiz-adv-x="991" d="M49 96l96 146q118 -105 322 -105q105 0 162 38t57 114q0 62 -26 97t-96 53t-197 18v153q122 0 192 21t92.5 52.5t22.5 80.5q0 72 -54 108.5t-153 36.5q-198 0 -320 -106l-92 141q163 131 418 131q191 0 305.5 -72.5t114.5 -209.5q0 -214 -258 -256q140 -23 206 -91 t66 -182q0 -143 -122.5 -220t-313.5 -77q-259 0 -422 129z" />
<glyph unicode="&#x438;" horiz-adv-x="1101" d="M127 0v1042h203v-753l415 753h228v-1042h-203v764l-416 -764h-227z" />
<glyph unicode="&#x439;" horiz-adv-x="1101" d="M127 0v1042h203v-753l415 753h228v-1042h-203v764l-416 -764h-227zM281 1444h135q0 -76 36 -111t97 -35q59 0 95 35.5t36 110.5h135q0 -129 -76 -206t-192 -77q-114 0 -190 77t-76 206z" />
<glyph unicode="&#x43a;" horiz-adv-x="1007" d="M127 0v1042h203v-417h104q37 0 65 23.5t48 61t40.5 83t49.5 91t67.5 83t103 61t148.5 23.5v-187q-52 0 -89.5 -18.5t-57.5 -47t-39.5 -66.5t-34.5 -74.5t-44 -73t-68 -58.5l385 -526h-242l-326 453h-110v-453h-203z" />
<glyph unicode="&#x43b;" horiz-adv-x="1077" d="M2 -6v188q120 0 203.5 215.5t87.5 644.5h655v-1042h-203v866h-258q-11 -230 -53 -401.5t-108 -272.5t-146.5 -149.5t-177.5 -48.5z" />
<glyph unicode="&#x43c;" horiz-adv-x="1421" d="M127 0v1042h297l291 -729l293 729h286v-1042h-192v825l-332 -825h-123l-325 825v-825h-195z" />
<glyph unicode="&#x43d;" horiz-adv-x="1101" d="M127 0v1042h203v-413h440v413h203v-1042h-203v463h-440v-463h-203z" />
<glyph unicode="&#x43e;" horiz-adv-x="1134" d="M82 522q0 243 139 398t346 155q208 0 347 -155t139 -398q0 -240 -139.5 -397.5t-346.5 -157.5q-135 0 -245.5 71t-175 198.5t-64.5 285.5zM299 518q0 -167 70.5 -269t197.5 -102q128 0 198.5 102t70.5 269q0 171 -70.5 274t-198.5 103q-127 0 -197.5 -103t-70.5 -274z " />
<glyph unicode="&#x43f;" horiz-adv-x="1101" d="M127 0v1042h846v-1042h-203v866h-440v-866h-203z" />
<glyph unicode="&#x440;" horiz-adv-x="1122" d="M127 -395v1437h203v-98q41 56 122 93.5t158 37.5q124 0 222.5 -74.5t152 -201t53.5 -281.5t-55 -280.5t-153.5 -197t-221.5 -71.5q-89 0 -165 31t-113 88v-483h-203zM330 279q38 -61 99 -96.5t126 -35.5q127 0 197.5 101.5t70.5 267.5q0 165 -70 272t-196 107 q-60 0 -125 -38t-102 -95v-483z" />
<glyph unicode="&#x441;" horiz-adv-x="983" d="M82 518q0 156 65 284t180 200.5t255 72.5q223 0 358 -168l-123 -127q-50 58 -104 86.5t-125 28.5q-126 0 -207.5 -106t-81.5 -273q0 -164 82 -266.5t211 -102.5q142 0 235 136l121 -129q-141 -187 -366 -187q-216 0 -358 155.5t-142 395.5z" />
<glyph unicode="&#x442;" horiz-adv-x="952" d="M8 866v176h936v-176h-366v-866h-203v866h-367z" />
<glyph unicode="&#x443;" horiz-adv-x="952" d="M-35 -367l53 183q62 -39 154 -39q69 0 119 41.5t80 152.5l-387 1071h223l268 -831l273 831h219l-387 -1065q-27 -73 -51.5 -127t-59 -107t-72.5 -86.5t-88.5 -54t-109.5 -20.5q-125 0 -234 51z" />
<glyph unicode="&#x444;" horiz-adv-x="1579" d="M82 518q0 154 49 281.5t136 201.5t194 74q65 0 128.5 -36.5t98.5 -94.5v531h203v-531q35 58 98.5 94.5t128.5 36.5q107 0 194 -74t136 -201.5t49 -281.5t-50 -280t-137.5 -197.5t-193.5 -71.5q-74 0 -133.5 31t-91.5 88v-483h-203v483q-32 -57 -91.5 -88t-133.5 -31 q-106 0 -193.5 71.5t-137.5 197.5t-50 280zM287 516q0 -167 58 -266.5t167 -99.5q108 0 176 129v483q-32 59 -80.5 96t-99.5 37q-106 0 -163.5 -106t-57.5 -273zM891 279q68 -129 176 -129q109 0 167 99.5t58 266.5t-57.5 273t-163.5 106q-51 0 -99.5 -37t-80.5 -96v-483z " />
<glyph unicode="&#x445;" horiz-adv-x="997" d="M18 0l357 526l-346 516h239l232 -354l227 354h242l-348 -514l356 -528h-240l-239 369l-242 -369h-238z" />
<glyph unicode="&#x446;" horiz-adv-x="1206" d="M127 0v1042h203v-866h438v866h203v-866h233l-47 -520h-170v344h-860z" />
<glyph unicode="&#x447;" horiz-adv-x="1081" d="M109 694v348h202v-344q0 -119 44 -172t137 -53q137 0 256 113v456h202v-1042h-202v406q-137 -121 -312 -121q-327 0 -327 409z" />
<glyph unicode="&#x448;" horiz-adv-x="1718" d="M127 0v1042h203v-866h428v866h203v-866h425v866h203v-1042h-1462z" />
<glyph unicode="&#x449;" horiz-adv-x="1826" d="M127 0v1042h203v-866h428v866h203v-866h425v866h203v-866h234l-47 -520h-170v344h-1479z" />
<glyph unicode="&#x44a;" horiz-adv-x="1077" d="M0 866v176h379v-378h283q161 0 256.5 -93t95.5 -239q0 -142 -96.5 -237t-255.5 -95h-486v866h-176zM379 158h239q84 0 137.5 46t53.5 126q0 93 -51.5 136.5t-139.5 43.5h-239v-352z" />
<glyph unicode="&#x44b;" horiz-adv-x="1400" d="M127 0v1042h203v-378h282q161 0 257 -93.5t96 -238.5q0 -109 -55.5 -186t-143 -111.5t-197.5 -34.5h-442zM330 158h239q84 0 137.5 46t53.5 126q0 93 -51.5 136.5t-139.5 43.5h-239v-352zM1073 0v1042h197v-1042h-197z" />
<glyph unicode="&#x44c;" horiz-adv-x="1028" d="M127 0v1042h203v-378h282q161 0 257 -93.5t96 -238.5q0 -109 -55.5 -186t-143 -111.5t-197.5 -34.5h-442zM330 158h239q84 0 137.5 46t53.5 126q0 93 -51.5 136.5t-139.5 43.5h-239v-352z" />
<glyph unicode="&#x44d;" horiz-adv-x="983" d="M35 154l121 131q95 -138 241 -138q121 0 200.5 88.5t88.5 233.5h-412v149h406q-22 126 -97.5 202.5t-183.5 76.5q-73 0 -127.5 -29t-107.5 -88l-123 127q138 168 360 168q140 0 255 -72.5t180 -200.5t65 -284q0 -240 -142 -394.5t-358 -154.5q-227 0 -366 185z" />
<glyph unicode="&#x44e;" horiz-adv-x="1576" d="M119 0v1042h205v-413h221q28 200 157 323t310 123q208 0 344.5 -154.5t136.5 -398.5q0 -240 -137.5 -397.5t-343.5 -157.5q-191 0 -323.5 140t-149.5 356h-215v-463h-205zM737 518q0 -167 71.5 -269t199.5 -102q126 0 197 102t71 269q0 171 -70 274t-198 103 q-127 0 -199 -103.5t-72 -273.5z" />
<glyph unicode="&#x44f;" horiz-adv-x="1058" d="M61 0l314 389q-133 20 -209 106t-76 214q0 143 96.5 238t255.5 95h490v-1042h-205v377h-149l-295 -377h-222zM295 711q0 -93 51 -136t139 -43h242v351h-242q-84 0 -137 -46t-53 -126z" />
<glyph unicode="&#x451;" horiz-adv-x="1062" d="M82 518q0 156 62.5 283t176 200.5t257.5 73.5q97 0 179.5 -40.5t141 -114t84.5 -186t10 -247.5h-692q3 -158 88.5 -251t208.5 -93q76 0 142 33.5t106 97.5l112 -131q-139 -176 -374 -176q-219 0 -360.5 154t-141.5 397zM279 1184v196h176v-196h-176zM309 641h486 q-1 123 -64 194.5t-158 71.5q-96 0 -170 -73.5t-94 -192.5zM694 1184v196h176v-196h-176z" />
<glyph unicode="&#x452;" horiz-adv-x="1052" d="M8 1196v145h92v97l207 59v-156h191v-145h-191v-242q137 121 311 121q62 0 110.5 -15.5t91.5 -55t71.5 -104t44.5 -167t16 -239.5q0 -182 -32 -336.5t-87 -260.5t-117.5 -177.5t-133.5 -112.5l-115 153q53 31 99 85.5t86.5 141t64.5 217.5t24 292q0 99 -9 170.5t-24 114.5 t-39.5 68t-49.5 33.5t-60 8.5q-66 0 -132 -31.5t-120 -85.5v-774h-207v1196h-92z" />
<glyph unicode="&#x453;" horiz-adv-x="1148" d="M82 686q0 291 152.5 485.5t414.5 214.5q173 10 293 113l90 -158q-78 -65 -166.5 -94t-203.5 -39q-181 -20 -278 -147t-103 -326q61 98 160 154.5t214 56.5q98 0 177.5 -38t130 -103t77.5 -150.5t27 -183.5q0 -221 -129 -362.5t-340 -141.5q-151 0 -268.5 91t-182.5 254.5 t-65 373.5zM295 571q18 -203 99.5 -314.5t203.5 -111.5q125 0 191.5 90t66.5 228q0 145 -59.5 226t-180.5 81q-179 0 -321 -199z" />
<glyph unicode="&#x454;" horiz-adv-x="983" d="M82 518q0 156 65 284t180 200.5t255 72.5q223 0 358 -168l-123 -127q-100 117 -233 117q-108 0 -184.5 -76.5t-96.5 -202.5h406v-149h-412q9 -145 87.5 -233.5t201.5 -88.5q145 0 241 136l121 -129q-139 -185 -366 -185q-216 0 -358 154.5t-142 394.5z" />
<glyph unicode="&#x455;" horiz-adv-x="976" d="M55 123l101 158q52 -65 151 -103.5t195 -38.5q95 0 152 39t57 109q0 34 -13.5 60t-33.5 42t-55 28t-67 18.5t-81 13.5q-51 9 -88 17.5t-83 23.5t-77 37t-59 53t-42 75.5t-14 100.5q0 151 115.5 235t284.5 84q106 0 213 -34t182 -95l-107 -151q-44 49 -125.5 77.5 t-166.5 28.5q-86 0 -140.5 -36.5t-54.5 -104.5q0 -30 13 -53.5t32 -38t53 -26t64.5 -17.5t77.5 -13q62 -9 108 -19.5t99.5 -34t88 -56t57.5 -87t23 -124.5q0 -103 -57.5 -177.5t-151.5 -110.5t-212 -36q-120 0 -238.5 41t-200.5 115z" />
<glyph unicode="&#x456;" horiz-adv-x="454" d="M123 0v1042h207v-1042h-207zM123 1255v183h207v-183h-207z" />
<glyph unicode="&#x457;" horiz-adv-x="462" d="M-66 1184v196h177v-196h-177zM127 0v1042h209v-1042h-209zM350 1184v196h176v-196h-176z" />
<glyph unicode="&#x458;" horiz-adv-x="468" d="M-260 -383l49 166q91 -43 166 -43q80 0 129 57t49 183v1062h207v-1062q0 -109 -29 -190t-81 -127.5t-117.5 -68.5t-145.5 -22q-106 0 -227 45zM133 1255v183h207v-183h-207z" />
<glyph unicode="&#x459;" horiz-adv-x="1642" d="M2 -6v188q120 0 203.5 215.5t87.5 644.5h655v-378h283q161 0 256.5 -93t95.5 -239q0 -142 -96.5 -237t-255.5 -95h-486v866h-258q-11 -230 -53 -401.5t-108 -272.5t-146.5 -149.5t-177.5 -48.5zM948 158h242q81 0 134.5 47t53.5 125q0 94 -51 137t-137 43h-242v-352z" />
<glyph unicode="&#x45a;" horiz-adv-x="1667" d="M127 0v1042h207v-378h434v378h205v-378h282q161 0 257 -93.5t96 -238.5q0 -142 -97 -237t-256 -95h-487v498h-434v-498h-207zM973 158h241q81 0 135 47t54 125q0 94 -51.5 137t-137.5 43h-241v-352z" />
<glyph unicode="&#x45b;" horiz-adv-x="1052" d="M14 1196v145h86v97l207 59v-156h197v-145h-197v-242q137 121 311 121q155 0 242.5 -97.5t87.5 -303.5v-674h-207v653q0 238 -182 238q-66 0 -132 -31.5t-120 -85.5v-774h-207v1196h-86z" />
<glyph unicode="&#x45c;" horiz-adv-x="1007" d="M127 0v1042h203v-417h104q37 0 65 23.5t48 61t40.5 83t49.5 91t67.5 83t103 61t148.5 23.5v-187q-52 0 -89.5 -18.5t-57.5 -47t-39.5 -66.5t-34.5 -74.5t-44 -73t-68 -58.5l385 -526h-242l-326 453h-110v-453h-203zM373 1141l262 303h221l-313 -303h-170z" />
<glyph unicode="&#x45e;" horiz-adv-x="952" d="M-37 -367l55 183q67 -39 154 -39q69 0 119 41.5t80 152.5l-387 1071h223l268 -831l273 831h219l-387 -1065q-28 -74 -51.5 -126.5t-58 -106.5t-71.5 -86.5t-88.5 -53t-113.5 -20.5q-130 0 -234 49zM207 1444h135q0 -75 35.5 -110.5t95.5 -35.5t96.5 35.5t36.5 110.5h133 q0 -129 -75.5 -206t-190.5 -77q-114 0 -190 77t-76 206z" />
<glyph unicode="&#x45f;" horiz-adv-x="1101" d="M127 0v1042h207v-866h434v866h205v-1042h-309l-52 -387h-125l-51 387h-309z" />
<glyph unicode="&#x2000;" horiz-adv-x="916" />
<glyph unicode="&#x2001;" horiz-adv-x="1833" />
<glyph unicode="&#x2002;" horiz-adv-x="916" />
<glyph unicode="&#x2003;" horiz-adv-x="1833" />
<glyph unicode="&#x2004;" horiz-adv-x="611" />
<glyph unicode="&#x2005;" horiz-adv-x="458" />
<glyph unicode="&#x2006;" horiz-adv-x="305" />
<glyph unicode="&#x2007;" horiz-adv-x="305" />
<glyph unicode="&#x2008;" horiz-adv-x="229" />
<glyph unicode="&#x2009;" horiz-adv-x="366" />
<glyph unicode="&#x200a;" horiz-adv-x="101" />
<glyph unicode="&#x2010;" horiz-adv-x="532" d="M41 504v170h451v-170h-451z" />
<glyph unicode="&#x2011;" horiz-adv-x="532" d="M41 504v170h451v-170h-451z" />
<glyph unicode="&#x2012;" horiz-adv-x="532" d="M41 504v170h451v-170h-451z" />
<glyph unicode="&#x2013;" d="M41 500v172h1077v-172h-1077z" />
<glyph unicode="&#x2014;" horiz-adv-x="1773" d="M41 504v170h1692v-170h-1692z" />
<glyph unicode="&#x2018;" horiz-adv-x="438" d="M35 1159l235 545h131l-157 -545h-209z" />
<glyph unicode="&#x2019;" horiz-adv-x="438" d="M35 1159l158 545h208l-235 -545h-131z" />
<glyph unicode="&#x201a;" horiz-adv-x="438" d="M35 -346l158 545h208l-235 -545h-131z" />
<glyph unicode="&#x201c;" horiz-adv-x="776" d="M35 1161l235 543h131l-157 -543h-209zM373 1161l235 543h131l-157 -543h-209z" />
<glyph unicode="&#x201d;" horiz-adv-x="776" d="M35 1161l158 543h208l-235 -543h-131zM373 1161l157 543h209l-235 -543h-131z" />
<glyph unicode="&#x201e;" horiz-adv-x="759" d="M35 -346l158 545h208l-235 -545h-131zM373 -346l157 545h209l-235 -545h-131z" />
<glyph unicode="&#x2020;" horiz-adv-x="811" d="M41 1094v172h276v237h172v-237h281v-172h-281v-607h-172v607h-276z" />
<glyph unicode="&#x2021;" horiz-adv-x="811" d="M41 760v155h276v199h-276v158h276v231h172v-231h281v-158h-281v-199h281v-155h-281v-273h-172v273h-276z" />
<glyph unicode="&#x2022;" horiz-adv-x="978" d="M109 559q0 211 108 336t272 125q166 0 273.5 -124.5t107.5 -336.5q0 -201 -109.5 -328t-271.5 -127t-271 127t-109 328z" />
<glyph unicode="&#x2026;" horiz-adv-x="1783" d="M176 0v256h258v-256h-258zM762 0v256h258v-256h-258zM1348 0v256h260v-256h-260z" />
<glyph unicode="&#x202f;" horiz-adv-x="366" />
<glyph unicode="&#x2030;" horiz-adv-x="2424" d="M61 1004q0 197 87 324.5t239 127.5q153 0 239.5 -127t86.5 -325q0 -128 -37 -229.5t-112 -162.5t-177 -61q-152 0 -239 128.5t-87 324.5zM205 0l1098 1438h194l-1100 -1438h-192zM225 1001q0 -146 37.5 -224.5t124.5 -78.5t124.5 78.5t37.5 224.5q0 150 -37.5 229 t-124.5 79t-124.5 -79t-37.5 -229zM995 432q0 197 87.5 325t238.5 128q103 0 178.5 -61t112.5 -162t37 -230q0 -128 -37 -229t-112.5 -162t-178.5 -61q-151 0 -238.5 128.5t-87.5 323.5zM1161 430q0 -303 160 -303q164 0 164 303q0 150 -38.5 228.5t-125.5 78.5 q-86 0 -123 -78.5t-37 -228.5zM1731 432q0 197 87 325t238 128q103 0 178.5 -61t112.5 -162t37 -230q0 -128 -37 -229t-112.5 -162t-178.5 -61q-101 0 -175.5 61t-112 162.5t-37.5 228.5zM1896 430q0 -303 160 -303q164 0 164 303q0 150 -38.5 228.5t-125.5 78.5 q-86 0 -123 -78.5t-37 -228.5z" />
<glyph unicode="&#x2039;" horiz-adv-x="688" d="M59 692v78l451 541l106 -121l-340 -455l340 -456l-106 -119z" />
<glyph unicode="&#x203a;" horiz-adv-x="688" d="M57 279l340 454l-340 457l107 119l450 -531v-78l-450 -540z" />
<glyph unicode="&#x2044;" horiz-adv-x="1050" d="M-63 0l952 1438h221l-952 -1438h-221z" />
<glyph unicode="&#x205f;" horiz-adv-x="458" />
<glyph unicode="&#x20ac;" horiz-adv-x="1271" d="M84 725q0 215 78.5 384.5t228.5 267.5t346 98q159 0 287 -64t209 -188l-150 -129q-115 192 -340 192q-156 0 -259 -86t-144 -235h534l-40 -140h-523q-6 -49 -6 -102q0 -78 10 -129h451l-45 -139h-373q44 -140 145.5 -221.5t249.5 -81.5q236 0 353 219l151 -129 q-84 -137 -214 -206t-296 -69q-150 0 -273.5 58t-206.5 159.5t-128 240.5t-45 300z" />
<glyph unicode="&#x2122;" horiz-adv-x="1521" d="M27 1309v129h559v-129h-209v-547h-144v547h-206zM647 762v676h199l182 -486l176 486h197v-676h-135v518l-187 -518h-114l-185 518v-518h-133z" />
<glyph unicode="&#x2202;" horiz-adv-x="1230" d="M82 471q0 202 122 332.5t341 130.5q126 0 238.5 -50t189.5 -143q-3 274 -124.5 413.5t-318.5 139.5q-184 0 -319 -106l-100 158q175 129 419 129q193 0 341 -97.5t228.5 -271.5t80.5 -395q0 -333 -162 -538.5t-418 -205.5q-236 0 -377 141t-141 363zM299 461 q0 -135 79.5 -224.5t221.5 -89.5q138 0 235.5 112t120.5 316q-172 195 -383 195q-136 0 -205 -82t-69 -227z" />
<glyph unicode="&#x2206;" horiz-adv-x="1128" d="M-37 0l461 1292h283l456 -1292h-1200zM244 184h639l-318 916z" />
<glyph unicode="&#x220f;" horiz-adv-x="1390" d="M137 0v1438h1125v-1438h-215v1239h-693v-1239h-217z" />
<glyph unicode="&#x2211;" horiz-adv-x="1239" d="M49 0v43l481 696l-462 654v45h1124v-187h-793l375 -512l-393 -561h803v-178h-1135z" />
<glyph unicode="&#x221a;" horiz-adv-x="1257" d="M0 909l354 138l285 -824l430 1215h223l-540 -1438h-228l-297 801l-157 -68z" />
<glyph unicode="&#x221e;" horiz-adv-x="1615" d="M74 721q0 242 109.5 381t291.5 139q130 0 214 -67t118 -191q41 123 124.5 191.5t209.5 68.5q177 0 289 -138t112 -380t-109.5 -381t-291.5 -139q-130 0 -214 67t-118 191q-41 -123 -124.5 -191.5t-209.5 -68.5q-177 0 -289 138t-112 380zM238 721q0 -146 71 -230.5 t174 -84.5q118 0 184 80.5t66 234.5q0 151 -68.5 233t-181.5 82q-110 0 -177.5 -83.5t-67.5 -231.5zM883 725q0 -151 68.5 -233t181.5 -82q110 0 177.5 83t67.5 232q0 145 -71 229t-174 84q-118 0 -184 -79.5t-66 -233.5z" />
<glyph unicode="&#x222b;" horiz-adv-x="503" d="M-242 -346l52 164q74 -43 159 -43q176 0 176 245v1059q0 89 20 159t53 114.5t79 73.5t94.5 41t102.5 12q146 0 247 -56l-67 -159q-65 45 -154 45q-168 0 -168 -226v-1073q0 -193 -99 -299t-251 -106q-146 0 -244 49z" />
<glyph unicode="&#x2248;" d="M41 395q103 185 307 185q62 0 118 -16.5t97 -40t80 -47t83.5 -40t90.5 -16.5q71 0 124 43.5t81 114.5l98 -107q-63 -100 -142.5 -154.5t-168.5 -54.5q-57 0 -109.5 17t-93 41t-80.5 48t-88 41t-98 17q-72 0 -127 -41t-78 -104zM41 805q103 184 307 184q62 0 118 -16.5 t97 -40t80 -47t83.5 -40t90.5 -16.5q71 0 124 43.5t81 114.5l98 -106q-63 -100 -142.5 -154.5t-168.5 -54.5q-57 0 -109.5 17t-93 41t-80.5 48t-88 41t-98 17q-72 0 -127 -41.5t-78 -104.5z" />
<glyph unicode="&#x2260;" d="M41 287v172h332l227 319h-559v172h682l139 199h170l-141 -199h227v-172h-350l-227 -319h577v-172h-700l-150 -211h-168l150 211h-209z" />
<glyph unicode="&#x2264;" d="M41 0v172h1077v-172h-1077zM158 883v143l768 530l86 -139l-666 -461l666 -464l-82 -142z" />
<glyph unicode="&#x2265;" d="M41 0v172h1077v-172h-1077zM147 492l664 464l-664 461l86 139l768 -530v-143l-772 -533z" />
<glyph unicode="&#x25ca;" horiz-adv-x="1075" d="M35 520l377 918h252l372 -918l-372 -915h-252zM260 520l277 -737l276 737l-276 740z" />
<glyph unicode="&#x25fc;" horiz-adv-x="1044" d="M0 0v1044h1044v-1044h-1044z" />
</font>
</defs>
</svg>
