<?xml version="1.0" encoding="UTF-8"?>
<svg width="91px" height="16px" viewBox="0 0 91 16" version="1.1" xmlns="http://www.w3.org/2000/svg" xmlns:xlink="http://www.w3.org/1999/xlink">
    <!-- Generator: Sketch 52.2 (67145) - http://www.bohemiancoding.com/sketch -->
    <title>arrow-thin-right</title>
    <desc>Created with Sketch.</desc>
    <g id="Page-1" stroke="none" stroke-width="1" fill="none" fill-rule="evenodd">
        <g id="Desktop-HD-Copy-3" transform="translate(-478.000000, -792.000000)" fill="#00C6D0">
            <g id="Section" transform="translate(176.000000, 610.000000)">
                <g id="Group-12" transform="translate(301.000000, 9.000000)">
                    <g id="Group-Copy" transform="translate(0.000000, 20.000000)">
                        <path d="M84.7652702,168.675861 C84.5498215,168.891862 84.2667864,169 83.9840272,169 C83.7020955,169 83.4201639,168.892689 83.2047152,168.677792 C82.773266,168.247447 82.7724384,167.548962 83.2027842,167.117513 L88.2030705,162.103434 L2.10345058,162.103434 C1.49407,162.103434 1,161.609364 1,160.999983 C1,160.390603 1.49407,159.896533 2.10345058,159.896533 L88.2030705,159.896533 L83.2027842,154.882729 C82.7724384,154.45128 82.773266,153.75252 83.2047152,153.322174 C83.6361644,152.891828 84.3349245,152.892656 84.7652702,153.324381 L91.6433535,160.220947 C92.0728717,160.651569 92.0728717,161.348398 91.6433535,161.779295 L84.7652702,168.675861 Z" id="arrow-thin-right"></path>
                    </g>
                </g>
            </g>
        </g>
    </g>
</svg>