<?xml version="1.0" encoding="UTF-8"?>
<svg width="100px" height="23px" viewBox="0 0 100 23" version="1.1" xmlns="http://www.w3.org/2000/svg" xmlns:xlink="http://www.w3.org/1999/xlink">
    <!-- Generator: Sketch 52.2 (67145) - http://www.bohemiancoding.com/sketch -->
    <title>bittrex</title>
    <desc>Created with Sketch.</desc>
    <defs>
        <path d="M4.50160772,0 L22.0257235,0 L22.0257235,17.4097222 L4.50160772,17.4097222 L4.50160772,8.30555556 L6.75241158,8.30555556 L6.75241158,15.3333333 L19.7749196,15.3333333 L19.7749196,2.23611111 L6.75241158,2.23611111 L6.75241158,3.51388889 L4.50160772,3.51388889 L4.50160772,0 Z M0,4.95138889 L17.5241158,4.95138889 L17.5241158,14.0555556 L15.2733119,14.0555556 L15.2733119,7.02777778 L2.09003215,7.02777778 L2.09003215,20.125 L15.2733119,20.125 L15.2733119,18.6875 L17.5241158,18.6875 L17.5241158,22.3611111 L0,22.3611111 L0,4.95138889 Z" id="path-1"></path>
        <path d="M68.7459807,0 L65.8842444,5.07916667 L65.755627,5.59027778 L65.6270096,5.07916667 L62.7974277,0 L61.0610932,0 L64.8874598,6.26111111 L60.9646302,12.7777778 L62.733119,12.7777778 L65.659164,7.50694444 L65.7877814,7.02777778 L65.9163987,7.50694444 L68.8745981,12.7777778 L70.6430868,12.7777778 L66.7202572,6.26111111 L70.4823151,0 L68.7459807,0 Z M50.8038585,0 L50.8038585,12.7777778 L58.1993569,12.7777778 L58.1993569,11.5 L52.2508039,11.5 L52.2508039,6.86805556 L57.5562701,6.86805556 L57.5562701,5.75 L52.2508039,5.75 L52.2508039,1.27777778 L58.1993569,1.27777778 L58.1993569,0 L50.8038585,0 Z M38.9067524,0 L42.6045016,0 C45.4340836,0 47.1061093,1.46944444 47.1061093,3.89722222 C47.1061093,5.97361111 46.0128617,7.25138889 44.3086817,7.63472222 L44.6945338,8.01805556 L47.5884244,12.7777778 L45.8842444,12.7777778 L43.0868167,7.82638889 L40.3215434,7.82638889 L40.3215434,12.7777778 L38.9067524,12.7777778 L38.9067524,0 Z M40.3536977,1.27777778 L40.3536977,6.70833333 L42.7652733,6.70833333 C44.4694534,6.70833333 45.6270096,5.81388889 45.6270096,3.96111111 C45.6270096,2.26805556 44.5980707,1.27777778 42.8617363,1.27777778 L40.3536977,1.27777778 Z M27.170418,0 L27.170418,1.27777778 L30.8681672,1.27777778 L30.8681672,12.7777778 L32.3151125,12.7777778 L32.3151125,1.27777778 L35.85209,1.27777778 L35.85209,0 L27.170418,0 Z M16.5594855,0 L16.5594855,1.27777778 L20.096463,1.27777778 L20.096463,12.7777778 L21.5434084,12.7777778 L21.5434084,1.27777778 L25.0803859,1.27777778 L25.0803859,0 L16.5594855,0 Z M11.8971061,12.7777778 L13.3440514,12.7777778 L13.3440514,0 L11.8971061,0 L11.8971061,12.7777778 Z M0,0 L4.08360129,0 C6.65594855,0 8.13504823,1.18194444 8.13504823,3.19444444 C8.13504823,4.72777778 7.39549839,5.78194444 6.04501608,6.19722222 C7.74919614,6.58055556 8.74598071,7.7625 8.74598071,9.26388889 C8.74598071,11.4680556 7.13826367,12.7458333 4.46945338,12.7458333 L0,12.7458333 L0,0 Z M1.44694534,1.27777778 L1.44694534,5.75 L4.27652733,5.75 C5.72347267,5.75 6.68810289,4.82361111 6.68810289,3.35416667 C6.68810289,2.04444444 5.75562701,1.27777778 4.11575563,1.27777778 L1.44694534,1.27777778 Z M1.44694534,6.86805556 L1.44694534,11.5 L4.46945338,11.5 C6.23794212,11.5 7.26688103,10.6694444 7.26688103,9.23194444 C7.26688103,7.7625 6.20578778,6.86805556 4.5659164,6.86805556 L1.44694534,6.86805556 Z" id="path-3"></path>
    </defs>
    <g id="Page-1" stroke="none" stroke-width="1" fill="none" fill-rule="evenodd">
        <g id="Desktop-HD-Copy-3" transform="translate(-541.000000, -497.000000)">
            <g id="bittrex" transform="translate(541.000000, 497.000000)">
                <g id="Group-371" transform="translate(0.321543, 0.319444)">
                    <g id="Fill-369-Clipped">
                        <mask id="mask-2" fill="white">
                            <use xlink:href="#path-1"></use>
                        </mask>
                        <g id="path-1_1_" opacity="0.5"></g>
                        <polygon id="Fill-369" fill="#FFFFFF" fill-rule="nonzero" mask="url(#mask-2)" points="-2.25080386 24.5972222 24.2765273 24.5972222 24.2765273 -2.23611111 -2.25080386 -2.23611111"></polygon>
                    </g>
                </g>
                <g id="Group-374" transform="translate(29.099678, 5.111111)">
                    <g id="Fill-372-Clipped">
                        <mask id="mask-4" fill="white">
                            <use xlink:href="#path-3"></use>
                        </mask>
                        <g id="path-3_1_" opacity="0.5"></g>
                        <polygon id="Fill-372" fill="#FFFFFF" fill-rule="nonzero" mask="url(#mask-4)" points="-2.25080386 15.0138889 72.829582 15.0138889 72.829582 -2.23611111 -2.25080386 -2.23611111"></polygon>
                    </g>
                </g>
            </g>
        </g>
    </g>
</svg>