<?xml version="1.0" encoding="utf-8"?>
<!-- Generator: Adobe Illustrator 22.1.0, SVG Export Plug-In . SVG Version: 6.00 Build 0)  -->
<svg version="1.1" id="Layer_1" xmlns="http://www.w3.org/2000/svg" xmlns:xlink="http://www.w3.org/1999/xlink" x="0px" y="0px"
	 viewBox="0 0 123.9 40.7" style="enable-background:new 0 0 123.9 40.7;" xml:space="preserve">
<style type="text/css">
	.st0{fill:#FFFFFF;}
</style>
<g>
	<g>
		<defs>
			<path id="SVGID_1_" d="M15.5,13.7l2.2,2.2L6.5,27l-2.2-2.2L15.5,13.7z M17.3,21.2l2.2,2.2L2.2,40.7L0,38.5L17.3,21.2z M19.8,0
				L22,2.2L4.7,19.5l-2.2-2.2L19.8,0z"/>
		</defs>
		<linearGradient id="SVGID_2_" gradientUnits="userSpaceOnUse" x1="2.7991" y1="35.312" x2="19.8445" y2="4.1713">
			<stop  offset="0" style="stop-color:#00ADCC"/>
			<stop  offset="1" style="stop-color:#00E5D1"/>
		</linearGradient>
		<use xlink:href="#SVGID_1_"  style="overflow:visible;fill-rule:evenodd;clip-rule:evenodd;fill:url(#SVGID_2_);"/>
		<clipPath id="SVGID_3_">
			<use xlink:href="#SVGID_1_"  style="overflow:visible;"/>
		</clipPath>
	</g>
	<g>
		<path class="st0" d="M40.4,20.1l-1.8-0.7c-1.7-0.7-2.6-1.6-2.6-2.7c0-0.7,0.2-1.3,0.7-1.9c0.6-0.7,1.4-1,2.4-1
			c0.8,0,1.6,0.2,2.2,0.8c0.4,0.3,0.8,0.8,1.2,1.4l2-1.3c-1.4-2.2-3-3.2-5.3-3.2c-1.6,0-3,0.5-4.1,1.4c-1.1,1-1.7,2.3-1.7,3.8
			c0,2.2,1.3,3.8,4,4.9l1.8,0.7c1.3,0.5,2.2,1.1,2.7,1.6c0.3,0.4,0.5,0.9,0.5,1.5c0,0.9-0.3,1.6-0.9,2.3c-0.7,0.8-1.6,1.2-2.7,1.2
			c-1.3,0-2.3-0.6-3-1.7c-0.2-0.3-0.4-0.9-0.6-1.7L32.7,26c0.8,3.3,2.9,5.2,6,5.2c1.7,0,3.1-0.5,4.2-1.6c1.3-1.2,1.9-2.6,1.9-4.3
			c0-0.9-0.2-1.8-0.7-2.5C43.6,21.7,42.3,20.9,40.4,20.1z"/>
		<path class="st0" d="M50.5,26.9v-6.5h2v-2.2h-2v-3.9l-2.4,1v2.9h-1.4v2.2h1.4v6.5c0,1.4,0.3,2.5,0.9,3.2c0.6,0.6,1.3,0.9,2.2,0.9
			c0.5,0,1-0.1,1.5-0.2v-2.3c-0.5,0.1-0.9,0.2-1.1,0.2C50.9,28.7,50.5,28.1,50.5,26.9z"/>
		<path class="st0" d="M60.5,17.8c-1.6,0-2.9,0.5-4.1,1.6c-1.4,1.3-2.2,3-2.2,5.1c0,1.8,0.6,3.3,1.7,4.6c1.2,1.4,2.8,2.1,4.7,2.1
			c2.5,0,4.4-1.2,5.7-3.4l-2.1-0.9c0,0-0.1,0.2-0.2,0.3c-0.7,1.1-2,1.8-3.4,1.8c-1.3,0-2.4-0.5-3.1-1.5c-0.4-0.6-0.7-1.2-0.8-2h9.8
			c0-0.4,0-0.7,0-0.8c0-2-0.6-3.6-1.7-4.9C63.7,18.5,62.3,17.8,60.5,17.8z M56.8,23.5c0.4-2.2,1.8-3.5,3.7-3.5
			c1.1,0,2.1,0.4,2.7,1.3c0.5,0.6,0.8,1.3,0.9,2.2H56.8z"/>
		<path class="st0" d="M78.8,18.6c-1-0.6-2-0.8-3.1-0.8c-0.7,0-1.4,0.1-2,0.4c-0.6,0.3-1.3,0.7-2.1,1.3v-1.4h-2.4v18.4l2.4-2.4v-4.7
			c0.8,0.6,1.5,1.1,2.1,1.3c0.6,0.3,1.3,0.4,2,0.4c1.6,0,3-0.6,4.3-1.7c1.5-1.3,2.2-3,2.2-5c0-1.3-0.3-2.4-0.9-3.4
			C80.7,20,79.9,19.2,78.8,18.6z M77.7,28.3c-0.6,0.4-1.3,0.6-2.1,0.6c-1,0-1.9-0.3-2.7-1c-0.9-0.8-1.4-2-1.4-3.5
			c0-1.3,0.4-2.4,1.1-3.2c0.8-0.8,1.7-1.3,2.9-1.3c1,0,1.9,0.3,2.7,1c0.9,0.8,1.4,2,1.4,3.5C79.7,26.3,79,27.5,77.7,28.3z"/>
		<path class="st0" d="M86,12.3c-0.4,0-0.8,0.2-1.2,0.5s-0.5,0.7-0.5,1.1c0,0.9,0.7,1.7,1.7,1.7c0.5,0,0.8-0.2,1.2-0.5
			s0.5-0.7,0.5-1.1C87.6,13,86.9,12.3,86,12.3z"/>
		<polygon class="st0" points="84.8,30.8 87.2,30.8 87.2,18.5 84.8,20.9 		"/>
		<path class="st0" d="M99.3,24.5c0,1.4-0.2,2.4-0.5,3c-0.5,0.8-1.6,1.4-2.7,1.4c-1.2,0-2-0.4-2.5-1.3C93.2,27,93,26,93,24.7v-6.6
			h-2.4V25c0,2.4,0.5,3.8,1.7,4.9c1,0.8,2.1,1.3,3.5,1.3c1.4,0,2.6-0.5,3.5-1.5v1.2h2.4V18.1h-2.4V24.5z"/>
		<path class="st0" d="M123.5,21c-0.3-0.7-0.7-1.4-1.3-1.9c-1-0.9-2.2-1.3-3.6-1.3c-1.6,0-3,0.6-4,1.9c-1-1.3-2.2-1.9-3.7-1.9
			c-1.3,0-2.4,0.5-3.3,1.5v-1.2h-2.4v12.6h2.4v-6.3c0-1.4,0.2-2.4,0.5-3.1c0.4-0.8,1.4-1.3,2.5-1.3c1.1,0,1.8,0.4,2.3,1.2
			c0.3,0.6,0.5,1.6,0.5,2.9v6.6h2.4v-6.3c0-1.4,0.2-2.5,0.5-3.1c0.4-0.8,1.4-1.3,2.5-1.3c1.1,0,1.8,0.4,2.2,1.2
			c0.3,0.6,0.5,1.6,0.5,2.9v6.6h2.4V24C123.9,22.7,123.8,21.8,123.5,21z"/>
	</g>
</g>
</svg>
