<?xml version="1.0" encoding="UTF-8"?>
<svg width="18px" height="18px" viewBox="0 0 18 18" version="1.1" xmlns="http://www.w3.org/2000/svg" xmlns:xlink="http://www.w3.org/1999/xlink">
    <!-- Generator: Sketch 52.2 (67145) - http://www.bohemiancoding.com/sketch -->
    <title>Combined Shape Copy 2</title>
    <desc>Created with Sketch.</desc>
    <defs>
        <linearGradient x1="30.0271625%" y1="100%" x2="100%" y2="-26.0904948%" id="linearGradient-1">
            <stop stop-color="#00BAD1" offset="0%"></stop>
            <stop stop-color="#00D7D0" offset="100%"></stop>
        </linearGradient>
    </defs>
    <g id="Page-1" stroke="none" stroke-width="1" fill="none" fill-rule="evenodd">
        <g id="Desktop-HD-Copy-3" transform="translate(-183.000000, -1890.000000)" fill="url(#linearGradient-1)" fill-rule="nonzero">
            <path d="M192.344442,1902.35056 L197.678233,1897.04101 C198.07571,1896.64353 198.07571,1895.96215 197.678233,1895.56467 L196.85489,1894.74132 C196.457413,1894.34385 195.776025,1894.34385 195.378549,1894.74132 L190.661059,1899.43737 L188.621451,1897.3817 C188.223975,1896.98423 187.542587,1896.98423 187.14511,1897.3817 L186.321767,1898.20505 C185.92429,1898.60252 185.92429,1899.28391 186.321767,1899.68139 L189.927445,1903.31546 C190.324921,1903.71293 191.006309,1903.71293 191.403785,1903.31546 L192.227129,1902.49211 C192.271097,1902.44815 192.310202,1902.4007 192.344442,1902.35056 Z M192,1908 C187.029437,1908 183,1903.97056 183,1899 C183,1894.02944 187.029437,1890 192,1890 C196.970563,1890 201,1894.02944 201,1899 C201,1903.97056 196.970563,1908 192,1908 Z" id="Combined-Shape-Copy-2"></path>
        </g>
    </g>
</svg>