<?xml version="1.0" encoding="UTF-8"?>
<svg width="90px" height="14px" viewBox="0 0 90 14" version="1.1" xmlns="http://www.w3.org/2000/svg" xmlns:xlink="http://www.w3.org/1999/xlink">
    <!-- Generator: Sketch 52.2 (67145) - http://www.bohemiancoding.com/sketch -->
    <title>poloniex</title>
    <desc>Created with Sketch.</desc>
    <g id="Page-1" stroke="none" stroke-width="1" fill="none" fill-rule="evenodd">
        <g id="Desktop-HD-Copy-3" transform="translate(-179.000000, -502.000000)" fill="#FFFFFF" fill-rule="nonzero">
            <g id="poloniex" transform="translate(179.000000, 502.000000)">
                <path d="M50.4238689,4.44672736 L50.4238689,13.818719 C50.3603965,13.8246522 50.3094249,13.8335082 50.2584532,13.8335374 C49.402705,13.834385 48.546986,13.8322514 47.6912671,13.8363724 C47.5729494,13.8369278 47.5318083,13.8064726 47.5318963,13.6817879 C47.5349189,9.22540376 47.5344199,4.7689904 47.5347134,0.312606263 C47.5347134,0.274318163 47.5389097,0.23605929 47.5420495,0.182748225 C47.5921409,0.178539457 47.6385933,0.17120334 47.685046,0.171174113 C48.7705921,0.170531107 49.8561383,0.172693946 50.9416844,0.167696033 C51.0555122,0.167169937 51.1031973,0.216476827 51.151792,0.304919415 C52.7997868,3.30533278 54.4498357,6.30466471 56.0997672,9.30405511 C56.1270283,9.35362505 56.1568426,9.40176284 56.2148862,9.44501962 L56.2148862,0.184180376 L59.1057438,0.184180376 L59.1057438,0.339758664 C59.1057438,4.78155825 59.1051275,9.22335783 59.1087955,13.6650989 C59.108913,13.8003641 59.0714692,13.8374246 58.9378337,13.8368109 C57.8669892,13.832076 56.7960861,13.8322806 55.7252122,13.8368109 C55.6063077,13.837337 55.5436277,13.7987274 55.4872273,13.6948234 C53.8357697,10.6524685 52.1809963,7.61189644 50.5265165,4.57120752 C50.5021898,4.52651859 50.4749579,4.48343716 50.4491054,4.43962505 L50.4238689,4.44672736 Z" id="Fill-1"></path>
                <path d="M69.002959,5.59530899 L75.1879866,5.59530899 L75.1879866,8.19875366 L74.9829557,8.19875366 C73.0560401,8.19875366 71.1291245,8.19872443 69.2022384,8.19878288 C69.0031937,8.19878288 69.0029882,8.1990167 69.0029882,8.39510439 C69.0029296,9.28163465 69.0057467,10.1681942 68.999995,11.0546952 C68.9991148,11.1893466 69.0374388,11.2263779 69.1722775,11.2260856 C71.1823265,11.222023 73.1923752,11.223309 75.2023949,11.223309 L75.3989159,11.223309 C75.4032001,11.2879019 75.4089811,11.3351628 75.4090397,11.3824238 C75.4095974,12.1423111 75.406751,12.9022276 75.4120329,13.6620564 C75.4129426,13.7926743 75.3789029,13.8371002 75.2411298,13.8369249 C72.1942468,13.8333006 69.1473932,13.8333591 66.1005396,13.8368372 C65.9653489,13.8369541 65.9296364,13.7981107 65.9297245,13.6640146 C65.9332459,9.22157203 65.9333338,4.77912944 65.9294311,0.336686847 C65.9293136,0.197885177 65.9723329,0.168073069 66.1026524,0.168189979 C69.1446055,0.171375783 72.1865586,0.171521921 75.2285409,0.167926931 C75.3647587,0.167751566 75.4142338,0.196628392 75.4128253,0.343029227 C75.4055772,1.09797704 75.4054598,1.85307098 75.4128839,2.60801879 C75.4143511,2.75520877 75.3639958,2.78256577 75.2283355,2.78230272 C73.2231872,2.77824008 71.2180388,2.77949686 69.2128904,2.7795261 C69.0031056,2.7795261 69.0029882,2.77970147 69.002959,2.98131316 C69.0029296,3.78989352 69.002959,4.59850314 69.002959,5.4070835 L69.002959,5.59530899 Z" id="Fill-3"></path>
                <path d="M76.2837683,13.8257775 C76.3263767,13.7601908 76.3534911,13.7154726 76.3834225,13.6727127 C77.899073,11.5091428 79.4136377,9.34481294 80.9341595,7.1846334 C81.0237486,7.05731817 81.0285612,6.97580251 80.9410848,6.84509686 C79.4884079,4.6746 78.0415119,2.50024509 76.5935889,0.32659165 C76.5648898,0.28351023 76.5390079,0.238587473 76.497133,0.17066263 L76.6633118,0.17066263 C77.8856625,0.17066263 79.1080427,0.171977871 80.3303642,0.168499791 C80.4436345,0.168178288 80.5138562,0.198253445 80.5809674,0.296253445 C82.0820337,2.48738497 83.5863864,4.67632443 85.094378,6.86277954 C85.1679743,6.96951859 85.1644236,7.03642046 85.0897708,7.13956451 C83.5063049,9.32695491 81.9265363,11.517005 80.3477949,13.7077858 C80.2901328,13.7877816 80.234906,13.8370885 80.1249811,13.8367378 C78.8928586,13.8326459 77.6607066,13.8342242 76.428584,13.8338735 C76.3900252,13.8338735 76.3514368,13.8297232 76.2837683,13.8257775" id="Fill-5"></path>
                <polygon id="Fill-7" points="61.0054451 13.8189061 64.0574046 13.8189061 64.0574046 0.180392485 61.0054451 0.180392485"></polygon>
                <path d="M86.1022283,8.26945803 C87.3982928,10.1239758 88.6836465,11.9631783 89.9830857,13.8225478 C89.9084037,13.8257921 89.861599,13.8296209 89.8147942,13.8296209 C88.5878363,13.8299716 87.3608784,13.8286564 86.1339498,13.8321345 C86.030686,13.8324559 85.9658931,13.8042806 85.9047683,13.7185269 C85.3165549,12.893053 84.7250844,12.0698881 84.1301514,11.2492367 C84.0667375,11.1617587 84.0568777,11.1038589 84.1244291,11.0108276 C84.7599752,10.1353453 85.3899459,9.25582964 86.0216185,8.37754155 C86.0442726,8.34606346 86.0679831,8.31531608 86.1022283,8.26945803" id="Fill-9"></path>
                <path d="M89.7761122,0.17134071 C88.5505921,2.01612569 87.3368687,3.84319875 86.1136081,5.68462254 C86.0749906,5.63443883 86.044883,5.59889811 86.0186781,5.56075616 C85.387387,4.64067264 84.7573577,3.71977078 84.1241885,2.80103173 C84.0683163,2.71995449 84.053732,2.66298998 84.1169991,2.57185845 C84.6478142,1.80741169 85.1729071,1.03901921 85.6964742,0.269603757 C85.748238,0.193524426 85.8010877,0.157954488 85.8972794,0.158217537 C87.1438396,0.161432568 88.3903997,0.160263466 89.6369892,0.160701879 C89.6744624,0.160731107 89.711906,0.166255115 89.7761122,0.17134071" id="Fill-10"></path>
                <path d="M3.06846005,6.90986221 C3.12154451,6.91348642 3.16911216,6.91956577 3.21667982,6.91959499 C4.20949691,6.91997495 5.20237267,6.92485595 6.19510173,6.91597078 C6.45254223,6.91366179 6.71382687,6.88861378 6.9658973,6.83767014 C7.53236616,6.72315658 7.83112389,6.38432151 7.88872742,5.81856368 C7.91038376,5.60567014 7.92514412,5.39105219 7.92546691,5.17722338 C7.92622987,4.65668058 7.93870134,4.1347641 7.90539518,3.61600418 C7.86953603,3.05807933 7.57705803,2.71538622 7.04653636,2.58415449 C6.78369645,2.51912318 6.50641898,2.48793738 6.2351865,2.48486847 C5.22781447,2.47341127 4.22023704,2.47992903 3.21274764,2.48019207 C3.16588426,2.48022129 3.11902087,2.48536535 3.06846005,2.48834656 L3.06846005,6.90986221 Z M8.80339093e-06,0.178229644 C0.04992403,0.175277662 0.0886002608,0.171010438 0.127247147,0.171010438 C2.53324324,0.171682672 4.93920997,0.17206263 7.34520607,0.174254697 C7.84130649,0.174722338 8.32895566,0.240542797 8.80457353,0.384810022 C9.75751126,0.673841336 10.3952289,1.27730271 10.6945148,2.23432986 C10.9919814,3.18562839 11.0872635,4.15639248 11.0243779,5.14694364 C10.9838236,5.78512736 10.8708761,6.40855115 10.6998849,7.0259833 C10.3736606,8.20417537 9.56506912,8.84475575 8.40663092,9.07971608 C7.97925562,9.16640501 7.53486046,9.19762004 7.09759603,9.20293946 C5.81165536,9.2185762 4.52539191,9.21071399 3.23927519,9.20545302 C3.09985882,9.20486847 3.05816009,9.23924008 3.0586883,9.38187056 C3.06397033,10.7992317 3.06188687,12.2166221 3.06188687,13.6340125 L3.06188687,13.820572 L8.80339093e-06,13.820572 L8.80339093e-06,0.178229644 Z" id="Fill-11"></path>
                <path d="M28.2921236,11.2232681 L33.5458113,11.2232681 L33.5458113,13.8222409 C33.4909662,13.8261866 33.4350059,13.8336689 33.3790456,13.8336689 C30.7188663,13.8342534 28.058687,13.832909 25.3985371,13.8374977 C25.247735,13.8377608 25.2123747,13.794124 25.212492,13.6486877 C25.2162775,9.2165332 25.2163949,4.78437871 25.2121692,0.352253445 C25.2120519,0.201965344 25.2545722,0.166249269 25.4006792,0.167330689 C26.3003857,0.173936117 27.2002097,0.174666806 28.0998869,0.166804593 C28.2543277,0.165430898 28.2845233,0.214562422 28.2843767,0.356725261 C28.2807966,3.90243716 28.2815008,7.44817829 28.2819704,10.9938902 C28.2819996,11.0653808 28.2881328,11.1368422 28.2921236,11.2232681" id="Fill-12"></path>
                <path d="M42.9168712,8.66206012 C42.9118827,9.06987223 42.8775788,9.47929185 42.8264017,9.88415199 C42.7268646,10.671104 42.2560594,11.1592334 41.4293916,11.2997887 C40.9970278,11.373296 40.5626391,11.4106488 40.1283092,11.4098597 C39.6939498,11.4106488 39.2595612,11.373296 38.8271973,11.2997887 C38.0005001,11.1592334 37.5296949,10.671104 37.4302165,9.88415199 C37.3790101,9.47929185 37.3447063,9.06987223 37.3397177,8.66206012 C37.3268354,7.61007264 37.3257497,6.55770523 37.3381624,5.50571775 C37.343503,5.05406429 37.3776309,4.60112485 37.4275461,4.15192652 C37.5129684,3.38347557 37.956982,2.88488267 38.7164799,2.74058622 C39.1856127,2.65147139 39.6570342,2.6071332 40.1283092,2.6086238 C40.5995545,2.6071332 41.0709763,2.65147139 41.5401089,2.74058622 C42.2996362,2.88488267 42.7436206,3.38347557 42.8290427,4.15192652 C42.8789579,4.60112485 42.9131151,5.05406429 42.9184265,5.50571775 C42.9308392,6.55770523 42.9297241,7.61007264 42.9168712,8.66206012 M46.0441585,4.38419791 C46.0375266,3.89183048 45.9688014,3.39317913 45.8660072,2.91063215 C45.6295481,1.80068642 45.0070603,0.974598747 43.9459877,0.509588308 C43.3357659,0.242156159 42.6888928,0.124456785 42.0298122,0.0624066805 C41.7874254,0.0395507306 41.5446573,0.0206989561 41.3020653,5.84551149e-06 L40.1283092,5.84551149e-06 L38.9545236,5.84551149e-06 C38.7119316,0.0206989561 38.4691633,0.0395507306 38.2267767,0.0624066805 C37.5676962,0.124456785 36.9208229,0.242156159 36.3106012,0.509588308 C35.2494992,0.974598747 34.6270408,1.80068642 34.3905817,2.91063215 C34.2877874,3.39317913 34.2190623,3.89183048 34.2124304,4.38419791 C34.1905393,6.00553821 34.1985211,7.62740459 34.2068843,9.24897871 C34.210259,9.90656952 34.2635781,10.5637219 34.4249148,11.2032793 C34.7483221,12.4852 35.5739921,13.2927866 36.8332878,13.6759599 C37.4207088,13.8546864 38.0239759,13.9366113 38.6354594,13.9697846 C38.7225249,13.9744902 38.8090623,13.9896593 38.8958343,14.0000058 L40.1283092,14.0000058 L41.3607545,14.0000058 C41.4475266,13.9896593 41.5340346,13.9744902 41.6211295,13.9697846 C42.232613,13.9366113 42.8358801,13.8546864 43.4233009,13.6759599 C44.6825967,13.2927866 45.5082667,12.4852 45.8316739,11.2032793 C45.9930108,10.5637219 46.04633,9.90656952 46.0497046,9.24897871 C46.0580679,7.62740459 46.0660202,6.00553821 46.0441585,4.38419791" id="Fill-13"></path>
                <path d="M20.7810997,8.66206012 C20.7761113,9.06987223 20.7418073,9.47929185 20.6906303,9.88415199 C20.5910933,10.671104 20.1202878,11.1592334 19.2936202,11.2997887 C18.8612562,11.373296 18.4268676,11.4106488 17.9925376,11.4098597 C17.5581784,11.4106488 17.1237897,11.373296 16.6914258,11.2997887 C15.8647287,11.1592334 15.3939234,10.671104 15.2944451,9.88415199 C15.2432387,9.47929185 15.2089348,9.06987223 15.2039462,8.66206012 C15.1910639,7.61007264 15.1899782,6.55770523 15.2023909,5.50571775 C15.2077317,5.05406429 15.2418595,4.60112485 15.2917747,4.15192652 C15.3771969,3.38347557 15.8212106,2.88488267 16.5807085,2.74058622 C17.0498412,2.65147139 17.5212628,2.6071332 17.9925376,2.6086238 C18.4637832,2.6071332 18.9352047,2.65147139 19.4043375,2.74058622 C20.1638646,2.88488267 20.607849,3.38347557 20.6932713,4.15192652 C20.7431865,4.60112485 20.7773436,5.05406429 20.782655,5.50571775 C20.7950679,6.55770523 20.7939527,7.61007264 20.7810997,8.66206012 M23.908387,4.38419791 C23.9017552,3.89183048 23.83303,3.39317913 23.7302358,2.91063215 C23.4937767,1.80068642 22.8712889,0.974598747 21.8102161,0.509588308 C21.1999945,0.242156159 20.5531212,0.124456785 19.8940408,0.0624066805 C19.651654,0.0395507306 19.408886,0.0206989561 19.1662937,5.84551149e-06 L17.9925376,5.84551149e-06 L16.8187522,5.84551149e-06 C16.5761601,0.0206989561 16.3333919,0.0395507306 16.0910052,0.0624066805 C15.4319247,0.124456785 14.7850515,0.242156159 14.1748298,0.509588308 C13.1137278,0.974598747 12.4912693,1.80068642 12.2548102,2.91063215 C12.152016,3.39317913 12.0832908,3.89183048 12.0766589,4.38419791 C12.0547679,6.00553821 12.0627496,7.62740459 12.0711128,9.24897871 C12.0744874,9.90656952 12.1278067,10.5637219 12.2891435,11.2032793 C12.6125507,12.4852 13.4382207,13.2927866 14.6975165,13.6759599 C15.2849374,13.8546864 15.8882044,13.9366113 16.499688,13.9697846 C16.5867535,13.9744902 16.6732908,13.9896593 16.7600629,14.0000058 L17.9925376,14.0000058 L19.2249831,14.0000058 C19.3117552,13.9896593 19.3982632,13.9744902 19.4853579,13.9697846 C20.0968415,13.9366113 20.7001085,13.8546864 21.2875295,13.6759599 C22.5468253,13.2927866 23.3724953,12.4852 23.6959025,11.2032793 C23.8572393,10.5637219 23.9105586,9.90656952 23.9139332,9.24897871 C23.9222963,7.62740459 23.9302488,6.00553821 23.908387,4.38419791" id="Fill-14"></path>
            </g>
        </g>
    </g>
</svg>