<?xml version="1.0" encoding="UTF-8"?>
<svg width="40px" height="33px" viewBox="0 0 40 33" version="1.1" xmlns="http://www.w3.org/2000/svg" xmlns:xlink="http://www.w3.org/1999/xlink">
    <!-- Generator: Sketch 52.2 (67145) - http://www.bohemiancoding.com/sketch -->
    <title>Group 8</title>
    <desc>Created with Sketch.</desc>
    <defs>
        <polygon id="path-1" points="0 0.0327981651 39.9962519 0.0327981651 39.9962519 22.7081023 0 22.7081023"></polygon>
    </defs>
    <g id="Page-1" stroke="none" stroke-width="1" fill="none" fill-rule="evenodd">
        <g id="Desktop-HD-Copy-3" transform="translate(-1239.000000, -1193.000000)">
            <g id="Group-28" transform="translate(0.000000, 871.000000)">
                <g id="Group-20" transform="translate(932.000000, 307.000000)">
                    <g id="Group-8" transform="translate(307.000000, 15.000000)">
                        <path d="M22.565594,24.314844 C21.8537143,24.7543394 20.9421353,24.9964404 19.9985764,24.9964404 C19.0549173,24.9964404 18.1432381,24.7544404 17.4313584,24.314844 L5.80910276,17.1394128 C5.80910276,17.1394128 4.7600802,16.4921284 4.7600802,17.9584587 L4.7600802,24.6190092 L4.7600802,25.1235963 C4.7600802,28.8981101 11.5824361,32.9672018 19.9982757,32.9672018 C28.4139148,32.9672018 35.2363709,28.898211 35.2363709,25.1235963 L35.2363709,24.6190092 L35.2363709,17.5544862 C35.2363709,16.3774862 34.4905063,16.9526147 34.4905063,16.9526147 L22.565594,24.314844 Z" id="Fill-1" fill="#FFFFFF" opacity="0.75"></path>
                        <path d="M38.5950175,27.6338771 L38.5950175,15.5616294 C38.5950175,15.5616294 38.6033383,14.9898312 38.2662957,15.1787486 C37.9958195,15.3302257 37.3331629,15.7021064 37.0996792,15.9064642 C36.8301053,16.1423083 36.8908571,16.6717211 36.8908571,16.6717211 L36.8908571,27.6338771 C36.8908571,27.7894917 36.7580251,27.863767 36.6946667,27.9013083 C36.0825363,28.2635009 35.6711078,28.9320789 35.6711078,29.6985468 C35.6711078,30.8504183 36.5986266,31.7842073 37.7429875,31.7842073 C38.8872481,31.7842073 39.8147669,30.8504183 39.8147669,29.6985468 C39.8147669,28.9291523 39.4001303,28.258455 38.7842907,27.8971706 C38.7229373,27.861244 38.5950175,27.7893908 38.5950175,27.6338771" id="Fill-3" fill="#FFFFFF" opacity="0.5"></path>
                        <g id="Group-7" transform="translate(0.000000, 0.068119)">
                            <mask id="mask-2" fill="white">
                                <use xlink:href="#path-1"></use>
                            </mask>
                            <g id="Clip-6"></g>
                            <path d="M19.8674386,10.076545 C20.0033784,10.0083248 20.1551579,9.97804954 20.3067368,9.98884771 L39.0234286,11.3223706 C39.2823759,11.3408385 39.538015,11.2410312 39.7114486,11.0466642 C40.1830276,10.5182606 40.0692431,9.84009541 39.3680902,9.38465505 C39.3413233,9.36729725 39.3128521,9.35155413 39.284381,9.33722385 L21.6452832,0.457902752 C21.6298446,0.45013211 21.6149073,0.441755963 21.6000702,0.432774312 C20.7126516,-0.100574312 19.2842807,-0.100574312 18.3968622,0.432774312 C18.3820251,0.441755963 18.3670877,0.45013211 18.3516491,0.457902752 L0.712651629,9.33712294 C0.684080201,9.35155413 0.655609023,9.36729725 0.628842105,9.38475596 C-0.222987469,9.93798532 -0.209453634,10.820811 0.669744361,11.3636459 L18.3747068,22.2946183 C19.2677393,22.8459303 20.729193,22.8459303 21.6221253,22.2946183 L35.9888421,13.4247835 C36.2619248,13.2561505 36.1594687,12.8341138 35.8397694,12.8114073 L20.1867368,11.6963706 C19.3231779,11.634811 19.0926015,10.4652789 19.8674386,10.076545" id="Fill-5" fill="#FFFFFF" mask="url(#mask-2)"></path>
                        </g>
                    </g>
                </g>
            </g>
        </g>
    </g>
</svg>