<?xml version="1.0" encoding="UTF-8"?>
<svg width="34px" height="28px" viewBox="0 0 34 28" version="1.1" xmlns="http://www.w3.org/2000/svg" xmlns:xlink="http://www.w3.org/1999/xlink">
    <!-- Generator: Sketch 52.2 (67145) - http://www.bohemiancoding.com/sketch -->
    <title>Page 1</title>
    <desc>Created with Sketch.</desc>
    <defs>
        <polygon id="path-1" points="0.00693333333 0.476911628 32.1582667 0.476911628 32.1582667 10.4186047 0.00693333333 10.4186047"></polygon>
        <polygon id="path-3" points="6.66666667e-05 0.504 33.4973333 0.504 33.4973333 15.8994419 6.66666667e-05 15.8994419"></polygon>
    </defs>
    <g id="Page-1" stroke="none" stroke-width="1" fill="none" fill-rule="evenodd">
        <g id="Desktop-HD-Copy-3" transform="translate(-851.000000, -1196.000000)">
            <g id="Group-28" transform="translate(0.000000, 871.000000)">
                <g id="Group-20" transform="translate(538.000000, 307.000000)">
                    <g id="Page-1" transform="translate(313.000000, 18.000000)">
                        <path d="M18.3919333,17.1113209 L18.3919333,16.3839721 C18.3919333,15.4977395 17.6559333,14.7801581 16.7499333,14.7801581 C15.8426,14.7801581 15.1072667,15.4977395 15.1072667,16.3839721 L15.1072667,17.1113209 C15.1072667,17.9962512 15.8426,18.7151349 16.7499333,18.7151349 C17.6559333,18.7151349 18.3919333,17.9969023 18.3919333,17.1113209" id="Fill-1" fill="#FFFFFF" opacity="0.75"></path>
                        <g id="Group-5" transform="translate(0.666667, 17.077395)">
                            <mask id="mask-2" fill="white">
                                <use xlink:href="#path-1"></use>
                            </mask>
                            <g id="Clip-4"></g>
                            <path d="M18.8516,0.921004651 C18.4882667,2.0839814 17.3916,2.9396093 16.0836,2.9396093 C14.7749333,2.9396093 13.6782667,2.08463256 13.3142667,0.921004651 L2.0016,0.921004651 C1.2876,0.921004651 0.612933333,0.758865116 0.00693333333,0.476911628 L0.00693333333,7.81421395 C0.00693333333,9.24612093 1.2076,10.4188651 2.6736,10.4188651 L29.4916,10.4188651 C30.9576,10.4188651 32.1582667,9.24612093 32.1582667,7.81421395 L32.1582667,0.477562791 C31.5529333,0.759516279 30.8782667,0.921655814 30.1649333,0.921655814 L18.8516,0.921004651 Z" id="Fill-3" fill="#FFFFFF" opacity="0.5" mask="url(#mask-2)"></path>
                        </g>
                        <g id="Group-8" transform="translate(0.000000, 0.147163)">
                            <mask id="mask-4" fill="white">
                                <use xlink:href="#path-3"></use>
                            </mask>
                            <g id="Clip-7"></g>
                            <path d="M11.7467333,4.67665116 C12.0867333,3.6732093 13.0447333,2.94195349 14.1847333,2.94195349 L19.3140667,2.94195349 C20.4534,2.94195349 21.4114,3.6732093 21.7514,4.67665116 L11.7467333,4.67665116 Z M30.7194,4.67665116 L24.3174,4.67665116 C23.9320667,2.31553488 21.8367333,0.504 19.3127333,0.504 L14.1834,0.504 C11.6587333,0.504 9.5654,2.31553488 9.17806667,4.67665116 L2.77806667,4.67665116 C1.25006667,4.67665116 6.66666667e-05,5.84874419 6.66666667e-05,7.28130233 L6.66666667e-05,13.2934884 C6.66666667e-05,14.7312558 1.19406667,15.8981395 2.66673333,15.8981395 L13.8534,15.8981395 C13.8914,15.1499535 14.2207333,14.4746977 14.7414,13.9882791 C14.7574,13.9739535 14.7760667,13.9615814 14.7927333,13.9472558 C14.9080667,13.8437209 15.0280667,13.7460465 15.1594,13.6613953 C15.2060667,13.6307907 15.2594,13.6099535 15.3080667,13.5826047 C15.4160667,13.5220465 15.5227333,13.4588837 15.6394,13.412 C15.7307333,13.3748837 15.8294,13.3533953 15.9254,13.3253953 C16.0080667,13.3013023 16.0867333,13.2693953 16.1727333,13.2524651 C16.3594,13.2153488 16.5520667,13.195814 16.7487333,13.195814 C16.9460667,13.195814 17.1380667,13.216 17.3240667,13.2524651 C17.4094,13.2693953 17.4887333,13.3013023 17.5720667,13.3253953 C17.6680667,13.3533953 17.7654,13.3748837 17.8580667,13.4126512 C17.9740667,13.4595349 18.0800667,13.5220465 18.1880667,13.5826047 C18.2360667,13.6106047 18.2894,13.6314419 18.3380667,13.6620465 C18.4694,13.7460465 18.5887333,13.8437209 18.7040667,13.9472558 C18.7207333,13.9622326 18.7414,13.9739535 18.7560667,13.9895814 C19.2774,14.4766512 19.6060667,15.1499535 19.6440667,15.8994419 L30.8307333,15.8994419 C32.3034,15.8994419 33.4974,14.7332093 33.4974,13.2947907 L33.4974,7.28260465 C33.4974,5.84874419 32.2474,4.67665116 30.7194,4.67665116 Z" id="Fill-6" fill="#FFFFFF" mask="url(#mask-4)"></path>
                        </g>
                    </g>
                </g>
            </g>
        </g>
    </g>
</svg>