<?xml version="1.0" encoding="UTF-8"?>
<svg width="39px" height="35px" viewBox="0 0 39 35" version="1.1" xmlns="http://www.w3.org/2000/svg" xmlns:xlink="http://www.w3.org/1999/xlink">
    <!-- Generator: Sketch 52.2 (67145) - http://www.bohemiancoding.com/sketch -->
    <title>Group 13</title>
    <desc>Created with Sketch.</desc>
    <defs>
        <polygon id="path-1" points="0 0.0321382398 14.3483542 0.0321382398 14.3483542 14.5132734 0 14.5132734"></polygon>
        <polygon id="path-3" points="0.0145957913 0.0201368893 10.0590236 0.0201368893 10.0590236 15.6871099 0.0145957913 15.6871099"></polygon>
    </defs>
    <g id="Page-1" stroke="none" stroke-width="1" fill="none" fill-rule="evenodd">
        <g id="Desktop-HD-Copy-3" transform="translate(-457.000000, -1194.000000)">
            <g id="Group-28" transform="translate(0.000000, 871.000000)">
                <g id="Group-20" transform="translate(145.000000, 307.000000)">
                    <g id="Group-13" transform="translate(312.000000, 16.000000)">
                        <g id="Group-3" transform="translate(0.000000, 13.481548)">
                            <mask id="mask-2" fill="white">
                                <use xlink:href="#path-1"></use>
                            </mask>
                            <g id="Clip-2"></g>
                            <path d="M9.68018219,13.7491184 L13.725608,11.6229843 C14.2984631,11.3218916 14.5153335,10.6199214 14.2099518,10.0551118 L9.12307807,0.646138245 C8.81769639,0.0813286424 8.10572684,-0.132495861 7.5328717,0.168596854 L3.48744594,2.29467301 C0.279351366,3.98075745 -0.935063915,7.91176738 0.775038269,11.0748055 C2.48514045,14.2378435 6.47208762,15.4352028 9.68018219,13.7491184" id="Fill-1" fill="#FFFFFF" opacity="0.75" mask="url(#mask-2)"></path>
                        </g>
                        <path d="M17.8488073,22.9375513 C21.7441282,20.8902831 23.3690104,21.2221457 27.7365092,21.8535944 L28.5090731,21.9653162 C29.4630677,22.1032301 30.1704529,21.112394 29.7169059,20.2734371 L20.1841897,2.64137583 C19.7307014,1.80241887 18.5020044,1.8290745 18.0863656,2.68686424 L17.749717,3.38153311 C15.8467236,7.30848675 15.551392,9.4358957 11.6560711,11.483106 C11.0831571,11.7841987 10.8663456,12.4861689 11.1717272,13.0509785 L16.2586009,22.4600099 C16.5639826,23.0248195 17.2758934,23.2385861 17.8488073,22.9375513" id="Fill-4" fill="#FFFFFF"></path>
                        <path d="M14.9674935,26.4063353 L11.3782595,28.2926846 C10.6547118,28.6729329 10.5384011,29.648471 11.1528084,30.1837856 L16.3237855,34.6893402 C16.6914072,35.0096714 17.2221813,35.0711531 17.6550992,34.8436531 L21.9829854,32.5691167 C22.7186402,32.1824363 22.8236078,31.1845886 22.1841635,30.6572707 L21.7999679,30.3405902 C21.6060188,30.1806565 21.3330208,30.152668 21.1098618,30.2700108 C20.8799439,30.3908303 20.5979536,30.357221 20.403887,30.1858137 L16.3046844,26.5657475 C15.9370627,26.2411283 15.4029974,26.1774445 14.9674935,26.4063353" id="Fill-6" fill="#FFFFFF" opacity="0.5"></path>
                        <path d="M32.4814271,14.1977094 C32.2159519,14.3372459 31.8964648,14.3769396 31.5859699,14.2836449 C30.9650389,14.0971714 30.6149314,13.4496134 30.8040024,12.8373452 C31.1800874,11.6199363 31.0529038,10.3310207 30.4457255,9.20800745 C29.8385473,8.08493626 28.8241934,7.26226242 27.5894429,6.89151738 C26.9684531,6.70492798 26.6184043,6.05742798 26.8074753,5.44515977 C26.9966639,4.83283361 27.6535048,4.48764321 28.2744946,4.67417467 C30.1098997,5.22536672 31.6177658,6.44833858 32.5203345,8.11767632 C33.4228443,9.78707202 33.6119741,11.7030323 33.0529892,13.5126598 C32.9583656,13.8187939 32.7469023,14.058231 32.4814271,14.1977094" id="Fill-8" fill="#FFFFFF"></path>
                        <g id="Group-12" transform="translate(28.152007, 0.037839)">
                            <mask id="mask-4" fill="white">
                                <use xlink:href="#path-3"></use>
                            </mask>
                            <g id="Clip-11"></g>
                            <path d="M8.96007266,15.5505695 C8.69459748,15.690048 8.3751104,15.7297997 8.06461551,15.636505 C7.44362573,15.4500315 7.0935182,14.8024156 7.28264797,14.1901474 C8.03546437,11.7534172 7.78068577,9.17326821 6.56527136,6.92515563 C5.34985694,4.67704305 3.31932732,3.03024669 0.847945502,2.28800331 C0.226896948,2.1015298 -0.123269351,1.45397185 0.0659191879,0.841703642 C0.255048955,0.22943543 0.911831163,-0.115754967 1.53282094,0.070718543 C4.60503359,0.993293046 7.12901676,3.04038742 8.63982155,5.83488245 C10.1506263,8.62931954 10.4673511,11.8364553 9.53163481,14.8655199 C9.43701115,15.1717119 9.22548908,15.4110331 8.96007266,15.5505695" id="Fill-10" fill="#FFFFFF" mask="url(#mask-4)"></path>
                        </g>
                    </g>
                </g>
            </g>
        </g>
    </g>
</svg>