<?xml version="1.0" encoding="UTF-8"?>
<svg width="43px" height="32px" viewBox="0 0 43 32" version="1.1" xmlns="http://www.w3.org/2000/svg" xmlns:xlink="http://www.w3.org/1999/xlink">
    <!-- Generator: Sketch 52.2 (67145) - http://www.bohemiancoding.com/sketch -->
    <title>user-group</title>
    <desc>Created with Sketch.</desc>
    <defs>
        <linearGradient x1="30.0271625%" y1="100%" x2="100%" y2="-26.0904948%" id="linearGradient-1">
            <stop stop-color="#00BAD1" offset="0%"></stop>
            <stop stop-color="#00D7D0" offset="100%"></stop>
        </linearGradient>
    </defs>
    <g id="Page-1" stroke="none" stroke-width="1" fill="none" fill-rule="evenodd">
        <g id="Desktop-HD-Copy-3" transform="translate(-176.000000, -639.000000)" fill="url(#linearGradient-1)">
            <g id="Section" transform="translate(176.000000, 610.000000)">
                <g id="Group" transform="translate(0.000000, 10.000000)">
                    <path d="M35.0497253,33.384 C35.0497253,31.3256471 33.3661099,29.6512941 31.2969121,29.6512941 C30.7894176,29.6512941 30.2975165,29.7501176 29.8349121,29.9449412 C29.1133626,30.2489412 28.2817143,29.9124706 27.9774066,29.1943529 C27.6726264,28.4757647 28.010011,27.648 28.7310879,27.3444706 C29.5447802,27.0014118 30.4080879,26.8277647 31.2969121,26.8277647 C34.9297033,26.8277647 37.8848901,29.7689412 37.8848901,33.384 C37.8848901,36.9990588 34.9297033,39.9402353 31.2969121,39.9402353 C29.4110549,39.9402353 27.6121429,39.1331765 26.3613626,37.7265882 C25.8425275,37.1425882 25.8968681,36.2503529 26.4832747,35.7336471 C27.0687363,35.2169412 27.9651209,35.2710588 28.483956,35.8550588 C29.197,36.6569412 30.2223846,37.1167059 31.2969121,37.1167059 C33.3661099,37.1167059 35.0497253,35.4423529 35.0497253,33.384 L35.0497253,33.384 Z M43,45.8428235 C43,46.6225882 42.3653956,47.2352941 41.5824176,47.2352941 L35.2661429,47.2352941 C34.4831648,47.2352941 33.8485604,46.6028235 33.8485604,45.8235294 C33.8485604,45.0437647 34.4831648,44.4117647 35.2661429,44.4117647 L39.4735275,44.4117647 C38.7878901,43.4705882 37.6377582,42.728 36.2291538,41.9571765 C35.543044,41.5816471 35.2926044,40.7430588 35.6696813,40.0597647 C36.0462857,39.3755294 36.9086484,39.1270588 37.5947582,39.5025882 C39.6133956,40.6070588 43,42.8832941 43,45.8428235 L43,45.8428235 Z M5.31498901,47.2352941 C6.91874725,46.0343529 9.60553846,44.6781176 12.5257582,43.6734118 L15.755011,45.624 C16.357956,45.9877647 17.1135275,45.9877647 17.7155275,45.624 L20.9452527,43.6734118 C23.8659451,44.6781176 26.5522637,46.0343529 28.1564945,47.2352941 L5.31498901,47.2352941 Z M21.2831099,39.8188235 C20.7638022,39.6555294 20.1981868,39.7218824 19.7318022,40.0032941 L16.7355055,41.8131765 L13.7392088,40.0032941 C13.2723516,39.7218824 12.7067363,39.6550588 12.1879011,39.8188235 C9.32863736,40.7218824 0,44.0611765 0,49.1176471 C0,50.1571765 0.846296703,51 1.89010989,51 L31.5809011,51 C32.6247143,51 33.471011,50.1571765 33.471011,49.1176471 C33.471011,44.0611765 24.1423736,40.7218824 21.2831099,39.8188235 L21.2831099,39.8188235 Z M16.7355055,22.7647059 C20.1618022,22.7647059 22.9492418,25.5374118 22.9492418,28.9454118 C22.9492418,32.3538824 20.1618022,35.1265882 16.7355055,35.1265882 C13.3092088,35.1265882 10.5212967,32.3538824 10.5212967,28.9454118 C10.5212967,25.5374118 13.3092088,22.7647059 16.7355055,22.7647059 L16.7355055,22.7647059 Z M16.7355055,38.8912941 C22.2461209,38.8912941 26.7294615,34.4296471 26.7294615,28.9454118 C26.7294615,23.4616471 22.2461209,19 16.7355055,19 C11.2244176,19 6.74107692,23.4616471 6.74107692,28.9454118 C6.74107692,34.4296471 11.2244176,38.8912941 16.7355055,38.8912941 L16.7355055,38.8912941 Z" id="user-group"></path>
                </g>
            </g>
        </g>
    </g>
</svg>