<?xml version="1.0" encoding="UTF-8"?>
<svg width="35px" height="32px" viewBox="0 0 35 32" version="1.1" xmlns="http://www.w3.org/2000/svg" xmlns:xlink="http://www.w3.org/1999/xlink">
    <!-- Generator: Sketch 52.2 (67145) - http://www.bohemiancoding.com/sketch -->
    <title>archive</title>
    <desc>Created with Sketch.</desc>
    <defs>
        <linearGradient x1="30.0271625%" y1="100%" x2="100%" y2="-26.0904948%" id="linearGradient-1">
            <stop stop-color="#00BAD1" offset="0%"></stop>
            <stop stop-color="#00D7D0" offset="100%"></stop>
        </linearGradient>
    </defs>
    <g id="Page-1" stroke="none" stroke-width="1" fill="none" fill-rule="evenodd">
        <g id="Desktop-HD-Copy-3" transform="translate(-780.000000, -639.000000)" fill="url(#linearGradient-1)">
            <g id="Section" transform="translate(176.000000, 610.000000)">
                <g id="Group-Copy-3" transform="translate(604.000000, 29.000000)">
                    <path d="M13.0093478,21.9759036 L21.9898913,21.9759036 C22.8302717,21.9759036 23.5116304,21.2853976 23.5116304,20.4337349 C23.5116304,19.5820723 22.8302717,18.8915663 21.9898913,18.8915663 L13.0093478,18.8915663 C12.1689674,18.8915663 11.4876087,19.5820723 11.4876087,20.4337349 C11.4876087,21.2853976 12.1689674,21.9759036 13.0093478,21.9759036 L13.0093478,21.9759036 Z M31.4794565,14.2650602 L3.51141304,14.2650602 L7.48429348,28.9156627 L17.4996196,28.9156627 L27.4392391,28.9156627 L31.4794565,14.2650602 Z M35,8.33233735 L35,12.5339759 L35,12.5370602 L35,12.5378313 L35,12.5401446 C35,12.5405301 34.9996196,12.5405301 34.9996196,12.5405301 C34.9988587,12.6928193 34.9767935,12.8397108 34.9357065,12.978506 L30.065,30.8680482 C29.8827717,31.5365783 29.2824457,32 28.5980435,32 L6.32054348,32 C5.63347826,32 5.03163043,31.533494 4.85168478,30.861494 L0.0623913043,12.9719518 C0.0399456522,12.896 0.0232065217,12.8173494 0.0129347826,12.7371566 C0.00266304348,12.6573494 0,12.5775422 0,12.4988916 L0,8.33233735 C0,7.4806747 0.681358696,6.79016867 1.52173913,6.79016867 C2.36211957,6.79016867 3.04347826,7.4806747 3.04347826,8.33233735 L3.04347826,11.1807229 L31.9565217,11.1807229 L31.9565217,8.33233735 C31.9565217,7.4806747 32.6378804,6.79016867 33.4782609,6.79016867 C34.3186413,6.79016867 35,7.4806747 35,8.33233735 L35,8.33233735 Z M10.0080978,2.69879518 L24.9911413,2.69879518 C25.7265217,2.69879518 26.322663,2.0946506 26.322663,1.34939759 C26.322663,0.604144578 25.7265217,0 24.9911413,0 L10.0080978,0 C9.27271739,0 8.67657609,0.604144578 8.67657609,1.34939759 C8.67657609,2.0946506 9.27271739,2.69879518 10.0080978,2.69879518 L10.0080978,2.69879518 Z M5.98994565,6.55421687 C5.98994565,5.70255422 6.67168478,5.01204819 7.51168478,5.01204819 L27.4875543,5.01204819 C28.3279348,5.01204819 29.0092935,5.70255422 29.0092935,6.55421687 C29.0092935,7.40587952 28.3279348,8.09638554 27.4875543,8.09638554 L7.51168478,8.09638554 C6.67168478,8.09638554 5.98994565,7.40587952 5.98994565,6.55421687 L5.98994565,6.55421687 Z" id="archive"></path>
                </g>
            </g>
        </g>
    </g>
</svg>