<?xml version="1.0" encoding="UTF-8"?>
<svg width="32px" height="32px" viewBox="0 0 32 32" version="1.1" xmlns="http://www.w3.org/2000/svg" xmlns:xlink="http://www.w3.org/1999/xlink">
    <!-- Generator: Sketch 52.2 (67145) - http://www.bohemiancoding.com/sketch -->
    <title>web</title>
    <desc>Created with Sketch.</desc>
    <defs>
        <linearGradient x1="30.0271625%" y1="100%" x2="100%" y2="-26.0904948%" id="linearGradient-1">
            <stop stop-color="#00BAD1" offset="0%"></stop>
            <stop stop-color="#00D7D0" offset="100%"></stop>
        </linearGradient>
    </defs>
    <g id="Page-1" stroke="none" stroke-width="1" fill="none" fill-rule="evenodd">
        <g id="Desktop-HD-Copy-3" transform="translate(-1081.000000, -639.000000)" fill="url(#linearGradient-1)">
            <g id="Section" transform="translate(176.000000, 610.000000)">
                <g id="Group-Copy-2" transform="translate(905.000000, 29.000000)">
                    <path d="M20.7405217,28.3346087 C21.9801739,26.6702609 23.384,24.290087 24.2118261,21.293913 C25.9533913,21.1391304 27.3314783,20.9596522 28.3064348,20.8118261 C26.954087,24.258087 24.1965217,27.0017391 20.7405217,28.3346087 M3.69008696,20.8034783 C4.66991304,20.9495652 6.05669565,21.1283478 7.78504348,21.2838261 C8.61286957,24.2845217 10.0184348,26.6681739 11.2591304,28.3346087 C7.80069565,27.0006957 5.0413913,24.2535652 3.69008696,20.8034783 M11.3394783,3.6333913 C10.0963478,5.3133913 8.66608696,7.71826087 7.81565217,10.704 C6.06052174,10.8594783 4.67304348,11.0403478 3.69321739,11.1885217 C5.05565217,7.71547826 7.84556522,4.95478261 11.3394783,3.6333913 M28.309913,11.1968696 C27.3248696,11.050087 25.9283478,10.869913 24.1871304,10.714087 C23.3370435,7.72382609 21.9046957,5.31547826 20.6605217,3.6333913 C24.1568696,4.95547826 26.9485217,7.71965217 28.309913,11.1968696 M24.6706087,12.8601739 C26.7102609,13.0608696 28.1902609,13.2855652 28.962087,13.4156522 C29.1283478,14.2518261 29.2173913,15.1154783 29.2173913,16 C29.2173913,16.885913 29.1283478,17.7513043 28.9610435,18.5892174 C28.2006957,18.7213913 26.7370435,18.9481739 24.6796522,19.1495652 C24.8396522,18.1533913 24.9325217,17.1036522 24.9325217,16 C24.9325217,14.9043478 24.8365217,13.8570435 24.6706087,12.8601739 M17.0434783,19.5502609 L17.0434783,12.4504348 C19.0674783,12.4733913 20.904,12.5606957 22.5092174,12.6765217 C22.7196522,13.7231304 22.8455652,14.8323478 22.8455652,16 C22.8455652,17.1756522 22.7241739,18.2862609 22.5210435,19.3307826 C20.925913,19.4438261 19.090087,19.5283478 17.0434783,19.5502609 M14.9565217,2.82747826 L14.9565217,10.3631304 C13.1575652,10.3815652 11.5213913,10.4462609 10.0636522,10.536 C11.3944348,6.56173913 13.8132174,3.80034783 14.7401739,2.84382609 C14.8118261,2.83721739 14.8845217,2.83304348 14.9565217,2.82747826 M17.261913,2.84417391 C18.1909565,3.7986087 20.6142609,6.55582609 21.9429565,10.5429565 C20.4737391,10.450087 18.8326957,10.3826087 17.0434783,10.3634783 L17.0434783,2.82747826 C17.1161739,2.8333913 17.1895652,2.83721739 17.261913,2.84417391 M9.15443478,16 C9.15443478,14.8302609 9.2813913,13.7182609 9.49426087,12.6685217 C11.0855652,12.5561739 12.9165217,12.4723478 14.9565217,12.4504348 L14.9565217,19.549913 C12.9269565,19.5269565 11.085913,19.4393043 9.47756522,19.3231304 C9.27513043,18.2806957 9.15443478,17.1728696 9.15443478,16 M2.7826087,16 C2.7826087,15.114087 2.87165217,14.2486957 3.0386087,13.4114783 C3.80034783,13.2789565 5.26782609,13.0514783 7.33078261,12.8497391 C7.16382609,13.8497391 7.06747826,14.9005217 7.06747826,16 C7.06747826,17.0998261 7.16,18.146087 7.3186087,19.1391304 C5.28417391,18.9387826 3.80834783,18.7147826 3.03791304,18.5846957 C2.87165217,17.7485217 2.7826087,16.8845217 2.7826087,16 M14.7224348,29.1544348 C13.7895652,28.2246957 11.3467826,25.509913 10.0281739,21.4553043 C11.5046957,21.5495652 13.1551304,21.6177391 14.9565217,21.6372174 L14.9565217,29.1721739 C14.8786087,29.1662609 14.8,29.1617391 14.7224348,29.1544348 M17.2772174,29.1544348 C17.1996522,29.1617391 17.1213913,29.1662609 17.0434783,29.1721739 L17.0434783,21.6372174 C18.8563478,21.6187826 20.5036522,21.5533913 21.9693913,21.4622609 C20.6497391,25.514087 18.2083478,28.2267826 17.2772174,29.1544348 M16,0 C7.17773913,0 0,7.1773913 0,16 C0,24.8222609 7.17773913,32 16,32 C24.8222609,32 32,24.8222609 32,16 C32,7.1773913 24.8222609,0 16,0" id="web"></path>
                </g>
            </g>
        </g>
    </g>
</svg>