<?xml version="1.0" encoding="UTF-8"?>
<svg width="32px" height="32px" viewBox="0 0 32 32" version="1.1" xmlns="http://www.w3.org/2000/svg" xmlns:xlink="http://www.w3.org/1999/xlink">
    <!-- Generator: Sketch 52.2 (67145) - http://www.bohemiancoding.com/sketch -->
    <title>Path</title>
    <desc>Created with Sketch.</desc>
    <defs>
        <linearGradient x1="30.0271625%" y1="100%" x2="100%" y2="-26.0904948%" id="linearGradient-1">
            <stop stop-color="#00BAD1" offset="0%"></stop>
            <stop stop-color="#00D7D0" offset="100%"></stop>
        </linearGradient>
    </defs>
    <g id="Page-1" stroke="none" stroke-width="1" fill="none" fill-rule="evenodd">
        <g id="Desktop-HD-Copy-3" transform="translate(-477.000000, -639.000000)" fill="url(#linearGradient-1)">
            <g id="Section" transform="translate(176.000000, 610.000000)">
                <g id="Group-12" transform="translate(301.000000, 9.000000)">
                    <g id="Group-Copy" transform="translate(0.000000, 20.000000)">
                        <path d="M5.03304348,19.0970435 C5.76313043,24.7829565 10.8841739,29.202087 17.0730435,29.202087 C23.7610435,29.202087 29.202087,23.7606957 29.202087,17.0726957 C29.202087,10.9961739 24.7026087,5.79095652 19.0973913,5.03756522 L19.0973913,17.698087 C19.0973913,18.4706087 18.4709565,19.0970435 17.6984348,19.0970435 L5.03304348,19.0970435 Z M17.0730435,32 C8.84243478,32 2.14608696,25.584 2.14608696,17.698087 C2.14608696,16.9255652 2.77252174,16.2991304 3.54504348,16.2991304 L16.2994783,16.2991304 L16.2994783,3.54469565 C16.2994783,2.77217391 16.925913,2.14573913 17.6984348,2.14573913 C25.4507826,2.14573913 32,8.98156522 32,17.0726957 C32,25.3036522 25.3036522,32 17.0730435,32 L17.0730435,32 Z M2.52869565,10.4796522 L10.48,10.4796522 L10.48,2.52869565 C6.3533913,3.07617391 3.07617391,6.35304348 2.52869565,10.4796522 L2.52869565,10.4796522 Z M11.704,12.9276522 L1.224,12.9276522 C0.547826087,12.9276522 0,12.3798261 0,11.7036522 C0,5.25008696 5.25043478,0 11.704,0 C12.3801739,0 12.928,0.547826087 12.928,1.224 L12.928,11.7036522 C12.928,12.3798261 12.3801739,12.9276522 11.704,12.9276522 L11.704,12.9276522 Z" id="graph-pie"></path>
                    </g>
                </g>
            </g>
        </g>
    </g>
</svg>