<?xml version="1.0" encoding="UTF-8"?>
<svg width="80px" height="18px" viewBox="0 0 80 18" version="1.1" xmlns="http://www.w3.org/2000/svg" xmlns:xlink="http://www.w3.org/1999/xlink">
    <!-- Generator: Sketch 52.2 (67145) - http://www.bohemiancoding.com/sketch -->
    <title>logo_upbit.3f65b87</title>
    <desc>Created with Sketch.</desc>
    <g id="Page-1" stroke="none" stroke-width="1" fill="none" fill-rule="evenodd">
        <g id="Desktop-HD-Copy-3" transform="translate(-351.000000, -498.000000)" fill="#FFFFFF" fill-rule="nonzero">
            <g id="logo_upbit.3f65b87" transform="translate(351.000000, 498.000000)">
                <path d="M58.3372,17.9448 L61.8821,7.178 L67.7155,7.178 L64.1714,17.9448 L58.3372,17.9448 Z M62.781,4.4131 L64.2289,0.0009 L70.0627,0.0009 L68.6148,4.4131 L62.781,4.4131 Z" id="Shape"></path>
                <path d="M38.555,18 L44.4466,0.0552 L50.2786,0.0552 L48.3848,5.8238 L55.0316,5.8238 C56.764,5.8344 57.9561,6.9538 58.0916,8.6722 C58.1299882,9.26953197 58.05951,9.86886818 57.8836,10.441 C57.8836,10.441 57.8416,10.5955 57.831,10.6299 L56.9877,13.1949 C56.1187,15.8449 53.4477,18 51.0349,18 L38.555,18 Z M45.3718,15.0008 L48.9125,15.0008 C49.797,15.0008 50.7786,14.2093 51.0975,13.2357 L51.9667,10.5881 C52.2867,9.6159 51.8267,8.8242 50.9408,8.8242 L47.4,8.8242 L45.3718,15.0008 Z M71.8943,17.9439 C71.8169,17.943 71.4934,17.9097 71.4416,17.9039 C70.9898077,17.8445416 70.5542542,17.6962529 70.1601,17.4676 C70.1247,17.4476 70.0913,17.4223 70.0581,17.399 C69.3081,16.869 68.9057,15.9952 68.8351,15.0982 C68.7962578,14.5008161 68.8661226,13.9013413 69.0413,13.3289 C69.0874,13.1652 69.0829,13.1771 69.095,13.1389 L73.41,0 L79.2442,0 L77.3485,5.77 L80,5.77 L79.0154,8.769 L76.3642,8.769 L75.5568,11.2258 C75.3358,11.901 75.1244,12.5593 74.9788,13.2058 C74.8319,13.8558 74.9115,14.3291 75.2139,14.6129 C75.5797,14.9573 76.1495,15.0007 76.6039,15.0007 L78.52,15.0007 L77.5534,17.9447 L71.8943,17.9439 Z" id="Shape"></path>
                <path d="M18.3894,18 L22.8562,4.4315 L25.0069,5.1345 L23.47,0.0552 L36.7624,0.0552 C39.1747,0.0552 40.43,2.2105 39.56,4.86 L38.718,7.4243 C38.707,7.4573 38.6949,7.4896 38.6821,7.5226 L38.6463,7.6162 C38.4140643,8.24722269 38.092924,8.84185587 37.6926,9.3821 C36.4279,11.1021 34.5017,12.2188 32.7869,12.2283 L32.6594,12.2303 L26.1158,12.2303 L24.2216,18 L18.3894,18 Z M27.1008,9.231 L30.6418,9.231 C31.5276,9.231 32.5074,8.4398 32.826,7.4669 L33.696,4.819 C34.0155,3.8457 33.5551,3.0542 32.6706,3.0542 L29.1289,3.0542 L27.1008,9.231 Z M3.0611,17.9991 C2.90961084,17.9942892 2.75852595,17.9807333 2.6086,17.9585 C2.35772167,17.9280786 2.11149843,17.8671273 1.8754,17.777 C1.407,17.6006 0.9907,17.3612 0.6754,16.9604 C0.485881045,16.7162081 0.335298644,16.4441546 0.229,16.1539 C0.174077705,16.0058799 0.129536496,15.8542125 0.0957,15.7 C-0.0755,14.9233 -0.0043,14.1435 0.2096,13.3837 C0.2282,13.3175 0.3159,13.0326 0.3159,13.0326 L4.5776,0.0552 L10.4614,0.0552 L6.1322,13.2362 C5.8954,13.9569 6.0784,14.5984 6.5956,14.869 C6.76201049,14.9599053 6.94943368,15.0053642 7.139,15.0008 L10.0462,15.0008 L14.9539,0.0552 L21.6039,0.0552 L16.7306,5.1345 L19.362,4.4315 L14.8943,18 L3.0611,17.9991 Z" id="Shape"></path>
            </g>
        </g>
    </g>
</svg>